<svg xmlns="http://www.w3.org/2000/svg" width="375" viewBox="0 0 375 375" height="375" version="1.0"><defs><clipPath id="a"><path d="M 174.632812 50.914062 L 366.632812 50.914062 L 366.632812 242.914062 L 174.632812 242.914062 Z M 174.632812 50.914062"/></clipPath><clipPath id="b"><path d="M 58.863281 267 L 94.101562 267 L 94.101562 290.589844 L 58.863281 290.589844 Z M 58.863281 267"/></clipPath><clipPath id="c"><path d="M 85 248.890625 L 92 248.890625 L 92 256 L 85 256 Z M 85 248.890625"/></clipPath></defs><path fill="#FFF" d="M-37.5 -37.5H412.5V412.5H-37.5z"/><path fill="#1F8599" d="M-37.5 -37.5H412.5V412.5H-37.5z"/><g clip-path="url(#a)"><path fill="#FFF" d="M 270.632812 50.914062 C 217.617188 50.914062 174.632812 93.898438 174.632812 146.914062 C 174.632812 189.632812 202.5625 225.800781 241.136719 238.25 C 237.707031 212.625 239.695312 182.433594 250.175781 158.550781 C 261.679688 132.320312 292.28125 117.457031 292.28125 117.457031 C 292.28125 117.457031 258.167969 123.9375 241.160156 152.289062 C 232.136719 167.320312 227.128906 193.886719 227.128906 193.886719 C 227.128906 193.886719 194.96875 150.472656 233.5625 114.054688 C 259.335938 89.71875 313.21875 94.648438 328.28125 103.335938 C 308.328125 134.992188 320.121094 168.03125 298.449219 187.921875 C 274.59375 209.808594 248.203125 206.082031 248.203125 206.082031 C 248.203125 206.082031 247.585938 220.992188 254.371094 241.425781 C 259.65625 242.335938 265.074219 242.914062 270.632812 242.914062 C 323.648438 242.914062 366.632812 199.929688 366.632812 146.914062 C 366.632812 93.898438 323.648438 50.914062 270.632812 50.914062 Z M 270.632812 50.914062"/></g><g fill="#FF914D"><g><g><path d="M 83.15625 -170.890625 L 8.140625 -170.890625 L 8.140625 -166.828125 L 30.515625 -166.828125 L 30.515625 -4.0625 L 8.140625 -4.0625 L 8.140625 0 L 83.15625 0 C 95.03125 0 105.882812 -2.078125 115.71875 -6.234375 C 125.550781 -10.390625 133.941406 -16.28125 140.890625 -23.90625 C 147.835938 -31.53125 153.21875 -40.722656 157.03125 -51.484375 C 160.851562 -62.253906 162.765625 -74.253906 162.765625 -87.484375 C 162.765625 -99.859375 160.8125 -111.171875 156.90625 -121.421875 C 153.007812 -131.679688 147.539062 -140.5 140.5 -147.875 C 133.46875 -155.257812 125.078125 -160.941406 115.328125 -164.921875 C 105.578125 -168.898438 94.851562 -170.890625 83.15625 -170.890625 Z M 134.78125 -93.84375 L 134.78125 -81.125 C 134.78125 -66.03125 133.378906 -53.523438 130.578125 -43.609375 C 127.785156 -33.691406 124.015625 -25.804688 119.265625 -19.953125 C 114.523438 -14.109375 109.015625 -10 102.734375 -7.625 C 96.460938 -5.25 89.769531 -4.0625 82.65625 -4.0625 L 55.1875 -4.0625 L 55.1875 -166.828125 L 82.65625 -166.828125 C 89.601562 -166.828125 96.210938 -165.597656 102.484375 -163.140625 C 108.753906 -160.679688 114.304688 -156.613281 119.140625 -150.9375 C 123.972656 -145.257812 127.785156 -137.753906 130.578125 -128.421875 C 133.378906 -119.097656 134.78125 -107.570312 134.78125 -93.84375 Z M 134.78125 -93.84375" transform="translate(5.998 231.02)"/></g></g></g><g fill="#FFF"><g><g><path d="M 21.21875 -54.359375 L 27.515625 -54.359375 L 27.515625 -29.171875 C 25.460938 -32.148438 22.453125 -33.640625 18.484375 -33.640625 C 16.492188 -33.640625 14.554688 -33.140625 12.671875 -32.140625 C 10.796875 -31.148438 9.140625 -29.835938 7.703125 -28.203125 C 6.265625 -26.578125 5.101562 -24.726562 4.21875 -22.65625 C 3.34375 -20.59375 2.90625 -18.484375 2.90625 -16.328125 C 2.90625 -14.003906 3.382812 -11.78125 4.34375 -9.65625 C 5.3125 -7.53125 6.539062 -5.664062 8.03125 -4.0625 C 9.53125 -2.457031 11.191406 -1.1875 13.015625 -0.25 C 14.835938 0.6875 16.578125 1.15625 18.234375 1.15625 C 20.441406 1.15625 22.289062 0.601562 23.78125 -0.5 C 25.269531 -1.601562 26.515625 -2.875 27.515625 -4.3125 L 27.515625 0 L 40.9375 0 L 40.9375 -1.328125 L 34.640625 -1.328125 L 34.640625 -55.6875 L 21.21875 -55.6875 Z M 11.515625 -18.390625 C 11.515625 -23.523438 12.066406 -27.128906 13.171875 -29.203125 C 14.273438 -31.273438 16.15625 -32.3125 18.8125 -32.3125 C 19.96875 -32.3125 21 -32.117188 21.90625 -31.734375 C 22.820312 -31.347656 23.625 -30.835938 24.3125 -30.203125 C 25.007812 -29.566406 25.617188 -28.890625 26.140625 -28.171875 C 26.660156 -27.453125 27.117188 -26.757812 27.515625 -26.09375 L 27.515625 -6.71875 C 26.296875 -4.664062 24.953125 -3.0625 23.484375 -1.90625 C 22.023438 -0.75 20.382812 -0.171875 18.5625 -0.171875 C 17.40625 -0.171875 16.382812 -0.40625 15.5 -0.875 C 14.613281 -1.34375 13.878906 -2.113281 13.296875 -3.1875 C 12.710938 -4.269531 12.269531 -5.722656 11.96875 -7.546875 C 11.664062 -9.367188 11.515625 -11.628906 11.515625 -14.328125 Z M 11.515625 -18.390625" transform="translate(5.72 297.63)"/></g></g></g><g fill="#FFF"><g><g><path d="M 31.0625 -14.65625 C 31.0625 -11.53125 30.894531 -9.03125 30.5625 -7.15625 C 30.226562 -5.289062 29.738281 -3.851562 29.09375 -2.84375 C 28.445312 -1.84375 27.675781 -1.171875 26.78125 -0.828125 C 25.894531 -0.492188 24.894531 -0.328125 23.78125 -0.328125 C 22.601562 -0.328125 21.484375 -0.566406 20.421875 -1.046875 C 19.367188 -1.523438 18.421875 -2.140625 17.578125 -2.890625 C 16.742188 -3.640625 16.070312 -4.460938 15.5625 -5.359375 C 15.0625 -6.253906 14.8125 -7.117188 14.8125 -7.953125 L 14.8125 -24.1875 C 14.8125 -25.195312 15.09375 -26.203125 15.65625 -27.203125 C 16.21875 -28.210938 16.941406 -29.117188 17.828125 -29.921875 C 18.722656 -30.734375 19.710938 -31.390625 20.796875 -31.890625 C 21.890625 -32.398438 22.96875 -32.65625 24.03125 -32.65625 C 24.914062 -32.65625 25.773438 -32.5 26.609375 -32.1875 C 27.453125 -31.882812 28.207031 -31.242188 28.875 -30.265625 C 29.550781 -29.285156 30.082031 -27.859375 30.46875 -25.984375 C 30.863281 -24.117188 31.0625 -21.625 31.0625 -18.5 Z M 14.8125 -28.546875 L 14.8125 -32.8125 L 2.171875 -32.8125 L 2.171875 -31.484375 L 7.625 -31.484375 L 7.625 21.09375 L 2.171875 21.09375 L 2.171875 22.4375 L 20.265625 22.4375 L 20.265625 21.09375 L 14.8125 21.09375 L 14.8125 -3.59375 C 15.757812 -2.195312 16.988281 -1.050781 18.5 -0.15625 C 20.007812 0.726562 21.820312 1.171875 23.9375 1.171875 C 25.945312 1.171875 27.898438 0.695312 29.796875 -0.25 C 31.703125 -1.195312 33.394531 -2.46875 34.875 -4.0625 C 36.351562 -5.65625 37.535156 -7.523438 38.421875 -9.671875 C 39.316406 -11.816406 39.765625 -14.09375 39.765625 -16.5 C 39.765625 -18.894531 39.300781 -21.148438 38.375 -23.265625 C 37.457031 -25.390625 36.242188 -27.25 34.734375 -28.84375 C 33.234375 -30.4375 31.546875 -31.691406 29.671875 -32.609375 C 27.804688 -33.523438 25.953125 -33.984375 24.109375 -33.984375 C 21.765625 -33.984375 19.851562 -33.394531 18.375 -32.21875 C 16.894531 -31.050781 15.707031 -29.828125 14.8125 -28.546875 Z M 14.8125 -28.546875" transform="translate(126.44 276.12)"/></g></g></g><g fill="#FFF"><g><g><path d="M 15.828125 -1.328125 L 15.828125 -55.6875 L 2.90625 -55.6875 L 2.90625 -54.359375 L 8.703125 -54.359375 L 8.703125 -1.328125 L 2.90625 -1.328125 L 2.90625 0 L 21.625 0 L 21.625 -1.328125 Z M 15.828125 -1.328125" transform="translate(106.046 297.63)"/></g></g></g><g fill="#FFF"><g><g><path d="M 16.359375 -54.328125 C 13.316406 -52.328125 11.796875 -49.957031 11.796875 -47.21875 C 11.796875 -45.882812 12.242188 -44.671875 13.140625 -43.578125 C 14.046875 -42.492188 15.304688 -41.953125 16.921875 -41.953125 C 18.535156 -41.953125 19.835938 -42.425781 20.828125 -43.375 C 21.828125 -44.320312 22.328125 -45.503906 22.328125 -46.921875 C 22.328125 -47.585938 22.207031 -48.273438 21.96875 -48.984375 C 21.726562 -49.703125 21.28125 -50.390625 20.625 -51.046875 C 20.144531 -51.523438 19.765625 -51.859375 19.484375 -52.046875 C 19.203125 -52.234375 19.0625 -52.46875 19.0625 -52.75 C 19.0625 -53.132812 19.34375 -53.515625 19.90625 -53.890625 C 20.476562 -54.273438 21.191406 -54.609375 22.046875 -54.890625 C 22.898438 -55.171875 23.867188 -55.40625 24.953125 -55.59375 C 26.046875 -55.789062 27.113281 -55.890625 28.15625 -55.890625 C 31.09375 -55.890625 33.414062 -55.316406 35.125 -54.171875 C 36.832031 -53.035156 37.6875 -50.859375 37.6875 -47.640625 L 37.6875 -30.859375 C 33.320312 -30.859375 29.242188 -30.40625 25.453125 -29.5 C 21.660156 -28.601562 18.34375 -27.300781 15.5 -25.59375 C 12.65625 -23.882812 10.425781 -21.773438 8.8125 -19.265625 C 7.207031 -16.753906 6.40625 -13.9375 6.40625 -10.8125 C 6.40625 -8.53125 6.804688 -6.5625 7.609375 -4.90625 C 8.410156 -3.25 9.519531 -1.921875 10.9375 -0.921875 C 12.363281 0.0664062 14 0.796875 15.84375 1.265625 C 17.695312 1.742188 19.664062 1.984375 21.75 1.984375 C 23.9375 1.984375 25.90625 1.722656 27.65625 1.203125 C 29.414062 0.679688 30.976562 0.0195312 32.34375 -0.78125 C 33.71875 -1.582031 34.878906 -2.429688 35.828125 -3.328125 C 36.773438 -4.234375 37.535156 -5.113281 38.109375 -5.96875 C 38.390625 -3.976562 39.289062 -2.15625 40.8125 -0.5 C 42.332031 1.15625 44.988281 1.984375 48.78125 1.984375 C 51.238281 1.984375 53.296875 1.601562 54.953125 0.84375 C 56.617188 0.09375 57.972656 -0.800781 59.015625 -1.84375 C 60.054688 -2.882812 60.789062 -3.953125 61.21875 -5.046875 C 61.644531 -6.140625 61.859375 -6.96875 61.859375 -7.53125 C 61.859375 -8.007812 61.71875 -8.25 61.4375 -8.25 C 61.144531 -8.25 60.8125 -7.867188 60.4375 -7.109375 C 59.675781 -5.492188 58.726562 -4.1875 57.59375 -3.1875 C 56.457031 -2.195312 55.222656 -1.703125 53.890625 -1.703125 C 51.992188 -1.703125 50.851562 -2.484375 50.46875 -4.046875 C 50.09375 -5.617188 49.90625 -7.773438 49.90625 -10.515625 L 49.90625 -44.9375 C 49.90625 -49.007812 48.390625 -52.160156 45.359375 -54.390625 C 42.328125 -56.617188 37.679688 -57.734375 31.421875 -57.734375 C 28.484375 -57.734375 25.660156 -57.425781 22.953125 -56.8125 C 20.253906 -56.195312 18.054688 -55.367188 16.359375 -54.328125 Z M 37.6875 -29.4375 L 37.6875 -9.671875 C 37.6875 -8.816406 37.28125 -7.914062 36.46875 -6.96875 C 35.664062 -6.019531 34.671875 -5.140625 33.484375 -4.328125 C 32.304688 -3.523438 31.078125 -2.882812 29.796875 -2.40625 C 28.515625 -1.9375 27.445312 -1.703125 26.59375 -1.703125 C 23.65625 -1.703125 21.425781 -2.835938 19.90625 -5.109375 C 18.394531 -7.390625 17.640625 -10.472656 17.640625 -14.359375 C 17.640625 -17.492188 18.207031 -20.007812 19.34375 -21.90625 C 20.476562 -23.800781 21.96875 -25.269531 23.8125 -26.3125 C 25.664062 -27.351562 27.800781 -28.085938 30.21875 -28.515625 C 32.632812 -28.941406 35.125 -29.25 37.6875 -29.4375 Z M 37.6875 -29.4375" transform="translate(158.881 299.934)"/></g></g></g><g fill="#FF914D"><g><g><path d="M 25.46875 -41.921875 L 25.46875 -52 L 4.78125 -52 L 4.78125 -49.875 L 14.0625 -49.875 L 14.0625 -2.125 L 4.78125 -2.125 L 4.78125 0 L 34.75 0 L 34.75 -2.125 L 25.46875 -2.125 L 25.46875 -35.015625 C 25.46875 -36.515625 25.863281 -38.125 26.65625 -39.84375 C 27.457031 -41.570312 28.5 -43.1875 29.78125 -44.6875 C 31.0625 -46.195312 32.519531 -47.4375 34.15625 -48.40625 C 35.789062 -49.382812 37.492188 -49.875 39.265625 -49.875 C 41.828125 -49.875 43.703125 -49.078125 44.890625 -47.484375 C 46.085938 -45.890625 46.6875 -43.367188 46.6875 -39.921875 L 46.6875 -2.125 L 37.40625 -2.125 L 37.40625 0 L 67.375 0 L 67.375 -2.125 L 58.09375 -2.125 L 58.09375 -40.859375 C 58.09375 -45.453125 56.785156 -48.632812 54.171875 -50.40625 C 51.566406 -52.175781 48.234375 -53.0625 44.171875 -53.0625 C 39.304688 -53.0625 35.347656 -51.953125 32.296875 -49.734375 C 29.242188 -47.523438 26.96875 -44.921875 25.46875 -41.921875 Z M 25.46875 -41.921875" transform="translate(218.481 298.386)"/></g></g></g><g fill="#FF914D"><g><g><path d="M 27.34375 -54.40625 L 5 -54.40625 L 5 -52.1875 L 15.40625 -52.1875 L 15.40625 -2.21875 L 5 -2.21875 L 5 0 L 37.75 0 L 37.75 -2.21875 L 27.34375 -2.21875 Z M 28.453125 -80.078125 C 28.453125 -82.117188 27.757812 -83.832031 26.375 -85.21875 C 24.988281 -86.601562 23.273438 -87.296875 21.234375 -87.296875 C 19.203125 -87.296875 17.488281 -86.601562 16.09375 -85.21875 C 14.707031 -83.832031 14.015625 -82.117188 14.015625 -80.078125 C 14.015625 -78.046875 14.707031 -76.335938 16.09375 -74.953125 C 17.488281 -73.566406 19.203125 -72.875 21.234375 -72.875 C 23.273438 -72.875 24.988281 -73.566406 26.375 -74.953125 C 27.757812 -76.335938 28.453125 -78.046875 28.453125 -80.078125 Z M 28.453125 -80.078125" transform="translate(284.332 297.3)"/></g></g></g><g fill="#FF914D"><g><g><path d="M 18.796875 -23.734375 L 18.796875 -29.78125 C 18.796875 -34.257812 19.070312 -38.007812 19.625 -41.03125 C 20.175781 -44.050781 21.019531 -46.5 22.15625 -48.375 C 23.300781 -50.25 24.742188 -51.570312 26.484375 -52.34375 C 28.222656 -53.125 30.28125 -53.515625 32.65625 -53.515625 C 36.039062 -53.515625 38.347656 -53.078125 39.578125 -52.203125 C 40.816406 -51.335938 41.4375 -50.722656 41.4375 -50.359375 C 41.4375 -49.992188 41.300781 -49.675781 41.03125 -49.40625 C 40.382812 -48.664062 39.898438 -47.90625 39.578125 -47.125 C 39.265625 -46.351562 39.109375 -45.375 39.109375 -44.1875 C 39.109375 -42.351562 39.703125 -40.957031 40.890625 -40 C 42.078125 -39.039062 43.445312 -38.5625 45 -38.5625 C 46.832031 -38.5625 48.296875 -39.109375 49.390625 -40.203125 C 50.492188 -41.304688 51.046875 -42.722656 51.046875 -44.453125 C 51.046875 -46.191406 50.453125 -47.769531 49.265625 -49.1875 C 48.078125 -50.601562 46.585938 -51.789062 44.796875 -52.75 C 43.015625 -53.71875 41.070312 -54.453125 38.96875 -54.953125 C 36.863281 -55.453125 34.851562 -55.703125 32.9375 -55.703125 C 29.363281 -55.703125 25.882812 -54.992188 22.5 -53.578125 C 19.113281 -52.160156 16.09375 -50.191406 13.4375 -47.671875 C 10.789062 -45.160156 8.644531 -42.117188 7 -38.546875 C 5.351562 -34.984375 4.53125 -31.050781 4.53125 -26.75 C 4.53125 -22.363281 5.328125 -18.410156 6.921875 -14.890625 C 8.523438 -11.367188 10.628906 -8.347656 13.234375 -5.828125 C 15.847656 -3.316406 18.820312 -1.394531 22.15625 -0.0625 C 25.5 1.257812 28.863281 1.921875 32.25 1.921875 C 35.632812 1.921875 38.601562 1.394531 41.15625 0.34375 C 43.71875 -0.707031 45.867188 -2.03125 47.609375 -3.625 C 49.347656 -5.226562 50.71875 -6.921875 51.71875 -8.703125 C 52.726562 -10.492188 53.460938 -12.117188 53.921875 -13.578125 C 54.109375 -14.128906 54.203125 -14.5 54.203125 -14.6875 C 54.203125 -15.507812 53.835938 -15.921875 53.109375 -15.921875 C 52.554688 -15.921875 52.144531 -15.460938 51.875 -14.546875 C 51.320312 -12.804688 50.492188 -11.085938 49.390625 -9.390625 C 48.296875 -7.703125 46.945312 -6.171875 45.34375 -4.796875 C 43.75 -3.429688 41.875 -2.335938 39.71875 -1.515625 C 37.570312 -0.691406 35.21875 -0.28125 32.65625 -0.28125 C 29.820312 -0.28125 27.507812 -0.691406 25.71875 -1.515625 C 23.9375 -2.335938 22.519531 -3.6875 21.46875 -5.5625 C 20.414062 -7.4375 19.707031 -9.859375 19.34375 -12.828125 C 18.976562 -15.804688 18.796875 -19.441406 18.796875 -23.734375 Z M 18.796875 -23.734375" transform="translate(311.976 295.285)"/></g></g></g><path fill="#FFF" d="M 76.503906 240.230469 C 60.125 240.230469 46.84375 253.511719 46.84375 269.890625 C 46.84375 286.269531 60.125 299.550781 76.503906 299.550781 C 92.882812 299.550781 106.164062 286.269531 106.164062 269.890625 C 106.164062 253.511719 92.882812 240.230469 76.503906 240.230469"/><path fill="#1F8599" d="M 76.484375 244.882812 C 62.375 244.882812 50.9375 256.320312 50.9375 270.429688 C 50.9375 284.539062 62.375 295.976562 76.484375 295.976562 C 90.59375 295.976562 102.03125 284.539062 102.03125 270.429688 C 102.03125 256.320312 90.59375 244.882812 76.484375 244.882812"/><g clip-path="url(#b)"><path fill="#FF914D" d="M 92.84375 283.597656 C 91.351562 284.859375 81.003906 287.226562 77.867188 287.226562 C 77.859375 287.226562 77.847656 287.226562 77.835938 287.226562 C 77.21875 287.222656 76.40625 287.140625 75.46875 287.042969 C 73.253906 286.816406 70.496094 286.535156 68.53125 287.160156 C 67.417969 287.511719 66.347656 288.3125 65.566406 288.898438 C 65.28125 289.113281 65.039062 289.296875 64.875 289.394531 C 64.636719 289.535156 64.445312 289.589844 64.121094 289.472656 C 63.1875 289.144531 59.996094 285.847656 59.921875 284.953125 C 59.902344 284.722656 59.960938 284.589844 60.078125 284.417969 C 61.367188 282.542969 66.542969 279.28125 68.257812 278.535156 C 69.878906 277.828125 72.160156 277.019531 75.011719 277.019531 C 76.109375 277.019531 77.292969 277.136719 78.554688 277.433594 C 80.761719 277.945312 84.148438 278.96875 85.042969 279.472656 C 85.605469 279.785156 85.875 280.296875 85.769531 280.84375 C 85.691406 281.242188 85.371094 281.699219 84.722656 281.78125 C 83.984375 281.871094 83.082031 281.714844 82.121094 281.546875 C 80.535156 281.273438 78.734375 280.960938 77.210938 281.75 C 76.960938 281.878906 76.867188 282.183594 76.996094 282.429688 C 77.125 282.675781 77.429688 282.769531 77.679688 282.640625 C 78.898438 282.011719 80.449219 282.28125 81.949219 282.542969 C 82.753906 282.683594 83.527344 282.816406 84.25 282.816406 C 84.445312 282.816406 84.953125 282.769531 85.007812 282.761719 C 85.703125 282.6875 86.492188 282.507812 87.320312 282.320312 C 89.253906 281.878906 91.445312 281.382812 92.578125 282.1875 C 92.863281 282.390625 93.050781 282.722656 93.0625 283.050781 C 93.070312 283.210938 93.039062 283.433594 92.84375 283.597656 Z M 66.34375 272.53125 C 66.34375 272.0625 66.730469 271.679688 67.203125 271.679688 L 87.832031 271.679688 C 88.304688 271.679688 88.691406 272.0625 88.691406 272.53125 L 88.691406 280.996094 C 88.152344 281.097656 87.617188 281.21875 87.097656 281.335938 C 86.945312 281.371094 86.792969 281.40625 86.644531 281.4375 C 86.695312 281.3125 86.734375 281.175781 86.761719 281.035156 C 86.957031 280.058594 86.488281 279.125 85.542969 278.59375 C 84.476562 277.996094 80.832031 276.925781 78.785156 276.449219 C 73.953125 275.328125 70.230469 276.578125 67.847656 277.613281 C 67.476562 277.777344 66.949219 278.050781 66.34375 278.394531 Z M 67.808594 268.996094 C 67.808594 268.710938 68.042969 268.480469 68.328125 268.480469 L 86.707031 268.480469 C 86.992188 268.480469 87.222656 268.710938 87.222656 268.996094 L 87.222656 270.671875 L 67.808594 270.671875 Z M 93.167969 281.367188 C 92.261719 280.722656 91.015625 280.667969 89.703125 280.832031 L 89.703125 272.53125 C 89.703125 271.644531 89.074219 270.902344 88.238281 270.714844 L 88.238281 268.996094 C 88.238281 268.15625 87.550781 267.472656 86.707031 267.472656 L 68.328125 267.472656 C 67.484375 267.472656 66.796875 268.15625 66.796875 268.996094 L 66.796875 270.714844 C 65.960938 270.902344 65.332031 271.644531 65.332031 272.53125 L 65.332031 278.996094 C 63.050781 280.394531 60.210938 282.4375 59.242188 283.851562 C 59.0625 284.109375 58.867188 284.476562 58.914062 285.035156 C 59.027344 286.425781 62.582031 290 63.78125 290.421875 C 64.023438 290.507812 64.242188 290.542969 64.4375 290.542969 C 64.855469 290.542969 65.171875 290.394531 65.398438 290.257812 C 65.605469 290.132812 65.871094 289.933594 66.175781 289.707031 C 66.902344 289.160156 67.890625 288.417969 68.839844 288.117188 C 70.601562 287.558594 73.242188 287.828125 75.363281 288.046875 C 76.332031 288.144531 77.164062 288.230469 77.832031 288.234375 C 77.84375 288.234375 77.851562 288.234375 77.863281 288.234375 C 81.019531 288.234375 91.710938 285.878906 93.5 284.363281 C 93.894531 284.03125 94.101562 283.550781 94.078125 283.007812 C 94.050781 282.367188 93.710938 281.753906 93.167969 281.367188"/></g><path fill="#FF914D" d="M 78.964844 261.21875 C 79.753906 262 81.027344 261.996094 81.867188 261.207031 C 82.84375 260.292969 83.363281 258.734375 83.257812 257.039062 C 83.253906 256.992188 83.210938 256.953125 83.160156 256.949219 C 81.601562 256.855469 80.113281 257.292969 79.179688 258.125 C 78.699219 258.558594 78.410156 259.160156 78.394531 259.78125 C 78.378906 260.332031 78.582031 260.839844 78.964844 261.21875 Z M 80.386719 262.8125 C 79.609375 262.8125 78.835938 262.519531 78.246094 261.933594 C 77.667969 261.355469 77.359375 260.585938 77.382812 259.757812 C 77.40625 258.859375 77.8125 257.992188 78.503906 257.378906 C 79.648438 256.351562 81.371094 255.828125 83.222656 255.941406 C 83.785156 255.976562 84.234375 256.421875 84.269531 256.976562 C 84.390625 258.964844 83.753906 260.820312 82.5625 261.941406 C 81.945312 262.523438 81.164062 262.8125 80.386719 262.8125"/><path fill="#FF914D" d="M 75.355469 261.394531 L 75.359375 261.394531 Z M 69.6875 254.851562 C 69.492188 254.851562 69.300781 254.859375 69.101562 254.871094 C 68.941406 254.882812 68.808594 255.011719 68.796875 255.171875 C 68.652344 257.546875 69.382812 259.734375 70.757812 261.027344 C 71.980469 262.175781 73.84375 262.183594 74.996094 261.039062 C 75.554688 260.484375 75.851562 259.738281 75.828125 258.933594 C 75.804688 258.03125 75.390625 257.15625 74.695312 256.53125 C 73.496094 255.464844 71.660156 254.851562 69.6875 254.851562 Z M 72.914062 262.902344 C 71.898438 262.902344 70.871094 262.523438 70.0625 261.761719 C 68.472656 260.265625 67.621094 257.777344 67.785156 255.109375 C 67.828125 254.441406 68.367188 253.90625 69.042969 253.867188 C 71.492188 253.714844 73.859375 254.433594 75.371094 255.785156 C 76.277344 256.59375 76.8125 257.730469 76.84375 258.910156 C 76.871094 259.988281 76.472656 261 75.714844 261.753906 C 74.941406 262.519531 73.929688 262.902344 72.914062 262.902344"/><g clip-path="url(#c)"><path fill="#FF914D" d="M 90.214844 252.222656 L 89.457031 252.636719 C 89.238281 252.753906 89.0625 252.929688 88.945312 253.144531 L 88.53125 253.898438 C 88.460938 254.027344 88.335938 254.039062 88.285156 254.039062 C 88.238281 254.039062 88.113281 254.027344 88.046875 253.898438 L 87.632812 253.144531 C 87.511719 252.929688 87.335938 252.753906 87.117188 252.636719 L 86.359375 252.222656 C 86.230469 252.152344 86.21875 252.03125 86.21875 251.980469 C 86.21875 251.933594 86.230469 251.8125 86.359375 251.738281 L 87.117188 251.328125 C 87.335938 251.210938 87.511719 251.035156 87.632812 250.820312 L 88.046875 250.066406 C 88.113281 249.9375 88.238281 249.925781 88.285156 249.925781 C 88.335938 249.925781 88.460938 249.9375 88.53125 250.066406 L 88.945312 250.820312 C 89.0625 251.035156 89.238281 251.210938 89.457031 251.328125 L 90.214844 251.738281 C 90.34375 251.8125 90.359375 251.933594 90.359375 251.980469 C 90.359375 252.03125 90.34375 252.152344 90.214844 252.222656 Z M 90.699219 250.855469 L 89.941406 250.445312 C 89.898438 250.421875 89.859375 250.382812 89.832031 250.335938 L 89.417969 249.582031 C 89.195312 249.171875 88.757812 248.917969 88.285156 248.917969 C 87.816406 248.917969 87.382812 249.171875 87.15625 249.582031 L 86.742188 250.335938 C 86.714844 250.382812 86.679688 250.421875 86.632812 250.445312 L 85.875 250.855469 C 85.460938 251.082031 85.203125 251.511719 85.203125 251.980469 C 85.203125 252.449219 85.460938 252.882812 85.875 253.109375 L 86.632812 253.519531 C 86.679688 253.542969 86.714844 253.582031 86.742188 253.628906 L 87.15625 254.382812 C 87.382812 254.792969 87.816406 255.046875 88.285156 255.046875 C 88.757812 255.046875 89.195312 254.792969 89.417969 254.382812 L 89.832031 253.628906 C 89.859375 253.582031 89.898438 253.542969 89.941406 253.519531 L 90.699219 253.109375 C 91.113281 252.882812 91.371094 252.449219 91.371094 251.980469 C 91.371094 251.511719 91.113281 251.082031 90.699219 250.855469"/></g><path fill="#FF914D" d="M 80.777344 259.960938 L 80.730469 259.949219 C 80.78125 259.914062 80.832031 259.875 80.886719 259.839844 C 81.121094 259.6875 81.183594 259.375 81.03125 259.140625 C 80.875 258.910156 80.5625 258.847656 80.328125 259 C 79.976562 259.230469 79.65625 259.480469 79.355469 259.746094 C 79.332031 259.765625 79.226562 259.863281 79.214844 259.875 C 78.15625 260.855469 77.4375 262.074219 77.03125 263.570312 C 76.496094 262.109375 75.664062 260.777344 74.710938 259.703125 C 74.679688 259.652344 74.425781 259.390625 74.339844 259.300781 L 74.519531 258.011719 C 74.558594 257.738281 74.363281 257.484375 74.085938 257.445312 C 73.8125 257.40625 73.554688 257.597656 73.515625 257.871094 L 73.433594 258.472656 C 73.199219 258.28125 72.96875 258.105469 72.734375 257.953125 C 72.5 257.800781 72.1875 257.863281 72.03125 258.09375 C 71.878906 258.328125 71.941406 258.640625 72.175781 258.792969 C 72.515625 259.015625 72.855469 259.285156 73.183594 259.585938 L 72.398438 259.675781 C 72.121094 259.707031 71.921875 259.953125 71.953125 260.230469 C 71.980469 260.488281 72.199219 260.675781 72.457031 260.675781 C 72.472656 260.675781 74.074219 260.5 74.074219 260.5 C 75.511719 262.167969 76.632812 264.488281 76.632812 266.878906 L 76.632812 267.976562 C 76.632812 268.257812 76.859375 268.480469 77.140625 268.480469 C 77.421875 268.480469 77.644531 268.257812 77.644531 267.976562 L 77.644531 266.878906 C 77.644531 264.164062 78.324219 262.179688 79.757812 260.75 L 80.535156 260.941406 C 80.574219 260.949219 80.617188 260.957031 80.65625 260.957031 C 80.882812 260.957031 81.089844 260.800781 81.148438 260.574219 C 81.214844 260.300781 81.050781 260.027344 80.777344 259.960938"/><path fill="#FF914D" d="M 62.863281 262 C 62.835938 262 62.828125 262.015625 62.824219 262.023438 L 62.53125 262.550781 C 62.433594 262.730469 62.289062 262.875 62.109375 262.972656 L 61.578125 263.261719 C 61.570312 263.265625 61.554688 263.273438 61.554688 263.300781 C 61.554688 263.328125 61.570312 263.335938 61.578125 263.339844 L 62.109375 263.628906 C 62.289062 263.726562 62.433594 263.871094 62.53125 264.046875 L 62.824219 264.578125 C 62.832031 264.59375 62.894531 264.59375 62.902344 264.578125 L 63.195312 264.046875 C 63.292969 263.871094 63.4375 263.726562 63.613281 263.628906 L 64.148438 263.339844 C 64.15625 263.335938 64.171875 263.328125 64.171875 263.300781 C 64.171875 263.273438 64.15625 263.265625 64.148438 263.261719 L 63.613281 262.972656 C 63.4375 262.875 63.292969 262.730469 63.195312 262.554688 L 62.902344 262.023438 C 62.898438 262.015625 62.890625 262 62.863281 262 Z M 62.863281 265.609375 C 62.476562 265.609375 62.121094 265.398438 61.933594 265.0625 L 61.644531 264.53125 L 61.089844 264.222656 C 60.753906 264.039062 60.539062 263.683594 60.539062 263.300781 C 60.539062 262.914062 60.753906 262.5625 61.089844 262.375 L 61.625 262.085938 L 61.933594 261.539062 C 62.121094 261.203125 62.476562 260.992188 62.863281 260.992188 C 63.25 260.992188 63.605469 261.203125 63.792969 261.539062 L 64.082031 262.070312 L 64.632812 262.375 C 64.972656 262.5625 65.183594 262.914062 65.183594 263.300781 C 65.183594 263.683594 64.972656 264.039062 64.632812 264.222656 L 64.101562 264.515625 L 63.792969 265.0625 C 63.605469 265.398438 63.25 265.609375 62.863281 265.609375"/></svg>