<svg xmlns="http://www.w3.org/2000/svg" width="375" viewBox="0 0 375 375" height="375" version="1.0"><defs><clipPath id="a"><path d="M 174.632812 50.914062 L 366.632812 50.914062 L 366.632812 242.914062 L 174.632812 242.914062 Z M 174.632812 50.914062"/></clipPath><clipPath id="b"><path d="M 61.878906 260 L 88.601562 260 L 88.601562 277.992188 L 61.878906 277.992188 Z M 61.878906 260"/></clipPath><clipPath id="c"><path d="M 81 246.066406 L 87 246.066406 L 87 251 L 81 251 Z M 81 246.066406"/></clipPath></defs><g clip-path="url(#a)"><path fill="#FFF" d="M 270.632812 50.914062 C 217.617188 50.914062 174.632812 93.898438 174.632812 146.914062 C 174.632812 189.632812 202.5625 225.800781 241.136719 238.25 C 237.707031 212.625 239.695312 182.433594 250.175781 158.550781 C 261.679688 132.320312 292.28125 117.457031 292.28125 117.457031 C 292.28125 117.457031 258.167969 123.9375 241.160156 152.289062 C 232.136719 167.320312 227.128906 193.890625 227.128906 193.890625 C 227.128906 193.890625 194.96875 150.472656 233.5625 114.058594 C 259.335938 89.71875 313.21875 94.648438 328.28125 103.335938 C 308.328125 134.992188 320.121094 168.03125 298.449219 187.921875 C 274.59375 209.808594 248.203125 206.082031 248.203125 206.082031 C 248.203125 206.082031 247.585938 220.992188 254.371094 241.425781 C 259.65625 242.335938 265.074219 242.914062 270.632812 242.914062 C 323.648438 242.914062 366.632812 199.929688 366.632812 146.914062 C 366.632812 93.898438 323.648438 50.914062 270.632812 50.914062 Z M 270.632812 50.914062"/></g><g fill="#FF914D"><g><g><path d="M 83.15625 -170.890625 L 8.140625 -170.890625 L 8.140625 -166.828125 L 30.515625 -166.828125 L 30.515625 -4.0625 L 8.140625 -4.0625 L 8.140625 0 L 83.15625 0 C 95.03125 0 105.882812 -2.078125 115.71875 -6.234375 C 125.550781 -10.390625 133.941406 -16.28125 140.890625 -23.90625 C 147.835938 -31.53125 153.21875 -40.722656 157.03125 -51.484375 C 160.851562 -62.253906 162.765625 -74.253906 162.765625 -87.484375 C 162.765625 -99.859375 160.8125 -111.171875 156.90625 -121.421875 C 153.007812 -131.679688 147.539062 -140.5 140.5 -147.875 C 133.46875 -155.257812 125.078125 -160.941406 115.328125 -164.921875 C 105.578125 -168.898438 94.851562 -170.890625 83.15625 -170.890625 Z M 134.78125 -93.84375 L 134.78125 -81.125 C 134.78125 -66.03125 133.378906 -53.523438 130.578125 -43.609375 C 127.785156 -33.691406 124.015625 -25.804688 119.265625 -19.953125 C 114.523438 -14.109375 109.015625 -10 102.734375 -7.625 C 96.460938 -5.25 89.769531 -4.0625 82.65625 -4.0625 L 55.1875 -4.0625 L 55.1875 -166.828125 L 82.65625 -166.828125 C 89.601562 -166.828125 96.210938 -165.597656 102.484375 -163.140625 C 108.753906 -160.679688 114.304688 -156.613281 119.140625 -150.9375 C 123.972656 -145.257812 127.785156 -137.753906 130.578125 -128.421875 C 133.378906 -119.097656 134.78125 -107.570312 134.78125 -93.84375 Z M 134.78125 -93.84375" transform="translate(5.998 231.02)"/></g></g></g><g fill="#FFF"><g><g><path d="M 21.21875 -54.359375 L 27.515625 -54.359375 L 27.515625 -29.171875 C 25.460938 -32.148438 22.453125 -33.640625 18.484375 -33.640625 C 16.492188 -33.640625 14.554688 -33.140625 12.671875 -32.140625 C 10.796875 -31.148438 9.140625 -29.835938 7.703125 -28.203125 C 6.265625 -26.578125 5.101562 -24.726562 4.21875 -22.65625 C 3.34375 -20.59375 2.90625 -18.484375 2.90625 -16.328125 C 2.90625 -14.003906 3.382812 -11.78125 4.34375 -9.65625 C 5.3125 -7.53125 6.539062 -5.664062 8.03125 -4.0625 C 9.53125 -2.457031 11.191406 -1.1875 13.015625 -0.25 C 14.835938 0.6875 16.578125 1.15625 18.234375 1.15625 C 20.441406 1.15625 22.289062 0.601562 23.78125 -0.5 C 25.269531 -1.601562 26.515625 -2.875 27.515625 -4.3125 L 27.515625 0 L 40.9375 0 L 40.9375 -1.328125 L 34.640625 -1.328125 L 34.640625 -55.6875 L 21.21875 -55.6875 Z M 11.515625 -18.390625 C 11.515625 -23.523438 12.066406 -27.128906 13.171875 -29.203125 C 14.273438 -31.273438 16.15625 -32.3125 18.8125 -32.3125 C 19.96875 -32.3125 21 -32.117188 21.90625 -31.734375 C 22.820312 -31.347656 23.625 -30.835938 24.3125 -30.203125 C 25.007812 -29.566406 25.617188 -28.890625 26.140625 -28.171875 C 26.660156 -27.453125 27.117188 -26.757812 27.515625 -26.09375 L 27.515625 -6.71875 C 26.296875 -4.664062 24.953125 -3.0625 23.484375 -1.90625 C 22.023438 -0.75 20.382812 -0.171875 18.5625 -0.171875 C 17.40625 -0.171875 16.382812 -0.40625 15.5 -0.875 C 14.613281 -1.34375 13.878906 -2.113281 13.296875 -3.1875 C 12.710938 -4.269531 12.269531 -5.722656 11.96875 -7.546875 C 11.664062 -9.367188 11.515625 -11.628906 11.515625 -14.328125 Z M 11.515625 -18.390625" transform="translate(5.72 297.63)"/></g></g></g><g fill="#FFF"><g><g><path d="M 31.0625 -14.65625 C 31.0625 -11.53125 30.894531 -9.03125 30.5625 -7.15625 C 30.226562 -5.289062 29.738281 -3.851562 29.09375 -2.84375 C 28.445312 -1.84375 27.675781 -1.171875 26.78125 -0.828125 C 25.894531 -0.492188 24.894531 -0.328125 23.78125 -0.328125 C 22.601562 -0.328125 21.484375 -0.566406 20.421875 -1.046875 C 19.367188 -1.523438 18.421875 -2.140625 17.578125 -2.890625 C 16.742188 -3.640625 16.070312 -4.460938 15.5625 -5.359375 C 15.0625 -6.253906 14.8125 -7.117188 14.8125 -7.953125 L 14.8125 -24.1875 C 14.8125 -25.195312 15.09375 -26.203125 15.65625 -27.203125 C 16.21875 -28.210938 16.941406 -29.117188 17.828125 -29.921875 C 18.722656 -30.734375 19.710938 -31.390625 20.796875 -31.890625 C 21.890625 -32.398438 22.96875 -32.65625 24.03125 -32.65625 C 24.914062 -32.65625 25.773438 -32.5 26.609375 -32.1875 C 27.453125 -31.882812 28.207031 -31.242188 28.875 -30.265625 C 29.550781 -29.285156 30.082031 -27.859375 30.46875 -25.984375 C 30.863281 -24.117188 31.0625 -21.625 31.0625 -18.5 Z M 14.8125 -28.546875 L 14.8125 -32.8125 L 2.171875 -32.8125 L 2.171875 -31.484375 L 7.625 -31.484375 L 7.625 21.09375 L 2.171875 21.09375 L 2.171875 22.4375 L 20.265625 22.4375 L 20.265625 21.09375 L 14.8125 21.09375 L 14.8125 -3.59375 C 15.757812 -2.195312 16.988281 -1.050781 18.5 -0.15625 C 20.007812 0.726562 21.820312 1.171875 23.9375 1.171875 C 25.945312 1.171875 27.898438 0.695312 29.796875 -0.25 C 31.703125 -1.195312 33.394531 -2.46875 34.875 -4.0625 C 36.351562 -5.65625 37.535156 -7.523438 38.421875 -9.671875 C 39.316406 -11.816406 39.765625 -14.09375 39.765625 -16.5 C 39.765625 -18.894531 39.300781 -21.148438 38.375 -23.265625 C 37.457031 -25.390625 36.242188 -27.25 34.734375 -28.84375 C 33.234375 -30.4375 31.546875 -31.691406 29.671875 -32.609375 C 27.804688 -33.523438 25.953125 -33.984375 24.109375 -33.984375 C 21.765625 -33.984375 19.851562 -33.394531 18.375 -32.21875 C 16.894531 -31.050781 15.707031 -29.828125 14.8125 -28.546875 Z M 14.8125 -28.546875" transform="translate(126.44 276.12)"/></g></g></g><g fill="#FFF"><g><g><path d="M 15.828125 -1.328125 L 15.828125 -55.6875 L 2.90625 -55.6875 L 2.90625 -54.359375 L 8.703125 -54.359375 L 8.703125 -1.328125 L 2.90625 -1.328125 L 2.90625 0 L 21.625 0 L 21.625 -1.328125 Z M 15.828125 -1.328125" transform="translate(106.046 297.63)"/></g></g></g><g fill="#FFF"><g><g><path d="M 16.359375 -54.328125 C 13.316406 -52.328125 11.796875 -49.957031 11.796875 -47.21875 C 11.796875 -45.882812 12.242188 -44.671875 13.140625 -43.578125 C 14.046875 -42.492188 15.304688 -41.953125 16.921875 -41.953125 C 18.535156 -41.953125 19.835938 -42.425781 20.828125 -43.375 C 21.828125 -44.320312 22.328125 -45.503906 22.328125 -46.921875 C 22.328125 -47.585938 22.207031 -48.273438 21.96875 -48.984375 C 21.726562 -49.703125 21.28125 -50.390625 20.625 -51.046875 C 20.144531 -51.523438 19.765625 -51.859375 19.484375 -52.046875 C 19.203125 -52.234375 19.0625 -52.46875 19.0625 -52.75 C 19.0625 -53.132812 19.34375 -53.515625 19.90625 -53.890625 C 20.476562 -54.273438 21.191406 -54.609375 22.046875 -54.890625 C 22.898438 -55.171875 23.867188 -55.40625 24.953125 -55.59375 C 26.046875 -55.789062 27.113281 -55.890625 28.15625 -55.890625 C 31.09375 -55.890625 33.414062 -55.316406 35.125 -54.171875 C 36.832031 -53.035156 37.6875 -50.859375 37.6875 -47.640625 L 37.6875 -30.859375 C 33.320312 -30.859375 29.242188 -30.40625 25.453125 -29.5 C 21.660156 -28.601562 18.34375 -27.300781 15.5 -25.59375 C 12.65625 -23.882812 10.425781 -21.773438 8.8125 -19.265625 C 7.207031 -16.753906 6.40625 -13.9375 6.40625 -10.8125 C 6.40625 -8.53125 6.804688 -6.5625 7.609375 -4.90625 C 8.410156 -3.25 9.519531 -1.921875 10.9375 -0.921875 C 12.363281 0.0664062 14 0.796875 15.84375 1.265625 C 17.695312 1.742188 19.664062 1.984375 21.75 1.984375 C 23.9375 1.984375 25.90625 1.722656 27.65625 1.203125 C 29.414062 0.679688 30.976562 0.0195312 32.34375 -0.78125 C 33.71875 -1.582031 34.878906 -2.429688 35.828125 -3.328125 C 36.773438 -4.234375 37.535156 -5.113281 38.109375 -5.96875 C 38.390625 -3.976562 39.289062 -2.15625 40.8125 -0.5 C 42.332031 1.15625 44.988281 1.984375 48.78125 1.984375 C 51.238281 1.984375 53.296875 1.601562 54.953125 0.84375 C 56.617188 0.09375 57.972656 -0.800781 59.015625 -1.84375 C 60.054688 -2.882812 60.789062 -3.953125 61.21875 -5.046875 C 61.644531 -6.140625 61.859375 -6.96875 61.859375 -7.53125 C 61.859375 -8.007812 61.71875 -8.25 61.4375 -8.25 C 61.144531 -8.25 60.8125 -7.867188 60.4375 -7.109375 C 59.675781 -5.492188 58.726562 -4.1875 57.59375 -3.1875 C 56.457031 -2.195312 55.222656 -1.703125 53.890625 -1.703125 C 51.992188 -1.703125 50.851562 -2.484375 50.46875 -4.046875 C 50.09375 -5.617188 49.90625 -7.773438 49.90625 -10.515625 L 49.90625 -44.9375 C 49.90625 -49.007812 48.390625 -52.160156 45.359375 -54.390625 C 42.328125 -56.617188 37.679688 -57.734375 31.421875 -57.734375 C 28.484375 -57.734375 25.660156 -57.425781 22.953125 -56.8125 C 20.253906 -56.195312 18.054688 -55.367188 16.359375 -54.328125 Z M 37.6875 -29.4375 L 37.6875 -9.671875 C 37.6875 -8.816406 37.28125 -7.914062 36.46875 -6.96875 C 35.664062 -6.019531 34.671875 -5.140625 33.484375 -4.328125 C 32.304688 -3.523438 31.078125 -2.882812 29.796875 -2.40625 C 28.515625 -1.9375 27.445312 -1.703125 26.59375 -1.703125 C 23.65625 -1.703125 21.425781 -2.835938 19.90625 -5.109375 C 18.394531 -7.390625 17.640625 -10.472656 17.640625 -14.359375 C 17.640625 -17.492188 18.207031 -20.007812 19.34375 -21.90625 C 20.476562 -23.800781 21.96875 -25.269531 23.8125 -26.3125 C 25.664062 -27.351562 27.800781 -28.085938 30.21875 -28.515625 C 32.632812 -28.941406 35.125 -29.25 37.6875 -29.4375 Z M 37.6875 -29.4375" transform="translate(158.881 299.934)"/></g></g></g><g fill="#FF914D"><g><g><path d="M 25.46875 -41.921875 L 25.46875 -52 L 4.78125 -52 L 4.78125 -49.875 L 14.0625 -49.875 L 14.0625 -2.125 L 4.78125 -2.125 L 4.78125 0 L 34.75 0 L 34.75 -2.125 L 25.46875 -2.125 L 25.46875 -35.015625 C 25.46875 -36.515625 25.863281 -38.125 26.65625 -39.84375 C 27.457031 -41.570312 28.5 -43.1875 29.78125 -44.6875 C 31.0625 -46.195312 32.519531 -47.4375 34.15625 -48.40625 C 35.789062 -49.382812 37.492188 -49.875 39.265625 -49.875 C 41.828125 -49.875 43.703125 -49.078125 44.890625 -47.484375 C 46.085938 -45.890625 46.6875 -43.367188 46.6875 -39.921875 L 46.6875 -2.125 L 37.40625 -2.125 L 37.40625 0 L 67.375 0 L 67.375 -2.125 L 58.09375 -2.125 L 58.09375 -40.859375 C 58.09375 -45.453125 56.785156 -48.632812 54.171875 -50.40625 C 51.566406 -52.175781 48.234375 -53.0625 44.171875 -53.0625 C 39.304688 -53.0625 35.347656 -51.953125 32.296875 -49.734375 C 29.242188 -47.523438 26.96875 -44.921875 25.46875 -41.921875 Z M 25.46875 -41.921875" transform="translate(218.481 298.386)"/></g></g></g><g fill="#FF914D"><g><g><path d="M 27.34375 -54.40625 L 5 -54.40625 L 5 -52.1875 L 15.40625 -52.1875 L 15.40625 -2.21875 L 5 -2.21875 L 5 0 L 37.75 0 L 37.75 -2.21875 L 27.34375 -2.21875 Z M 28.453125 -80.078125 C 28.453125 -82.117188 27.757812 -83.832031 26.375 -85.21875 C 24.988281 -86.601562 23.273438 -87.296875 21.234375 -87.296875 C 19.203125 -87.296875 17.488281 -86.601562 16.09375 -85.21875 C 14.707031 -83.832031 14.015625 -82.117188 14.015625 -80.078125 C 14.015625 -78.046875 14.707031 -76.335938 16.09375 -74.953125 C 17.488281 -73.566406 19.203125 -72.875 21.234375 -72.875 C 23.273438 -72.875 24.988281 -73.566406 26.375 -74.953125 C 27.757812 -76.335938 28.453125 -78.046875 28.453125 -80.078125 Z M 28.453125 -80.078125" transform="translate(284.332 297.3)"/></g></g></g><g fill="#FF914D"><g><g><path d="M 18.796875 -23.734375 L 18.796875 -29.78125 C 18.796875 -34.257812 19.070312 -38.007812 19.625 -41.03125 C 20.175781 -44.050781 21.019531 -46.5 22.15625 -48.375 C 23.300781 -50.25 24.742188 -51.570312 26.484375 -52.34375 C 28.222656 -53.125 30.28125 -53.515625 32.65625 -53.515625 C 36.039062 -53.515625 38.347656 -53.078125 39.578125 -52.203125 C 40.816406 -51.335938 41.4375 -50.722656 41.4375 -50.359375 C 41.4375 -49.992188 41.300781 -49.675781 41.03125 -49.40625 C 40.382812 -48.664062 39.898438 -47.90625 39.578125 -47.125 C 39.265625 -46.351562 39.109375 -45.375 39.109375 -44.1875 C 39.109375 -42.351562 39.703125 -40.957031 40.890625 -40 C 42.078125 -39.039062 43.445312 -38.5625 45 -38.5625 C 46.832031 -38.5625 48.296875 -39.109375 49.390625 -40.203125 C 50.492188 -41.304688 51.046875 -42.722656 51.046875 -44.453125 C 51.046875 -46.191406 50.453125 -47.769531 49.265625 -49.1875 C 48.078125 -50.601562 46.585938 -51.789062 44.796875 -52.75 C 43.015625 -53.71875 41.070312 -54.453125 38.96875 -54.953125 C 36.863281 -55.453125 34.851562 -55.703125 32.9375 -55.703125 C 29.363281 -55.703125 25.882812 -54.992188 22.5 -53.578125 C 19.113281 -52.160156 16.09375 -50.191406 13.4375 -47.671875 C 10.789062 -45.160156 8.644531 -42.117188 7 -38.546875 C 5.351562 -34.984375 4.53125 -31.050781 4.53125 -26.75 C 4.53125 -22.363281 5.328125 -18.410156 6.921875 -14.890625 C 8.523438 -11.367188 10.628906 -8.347656 13.234375 -5.828125 C 15.847656 -3.316406 18.820312 -1.394531 22.15625 -0.0625 C 25.5 1.257812 28.863281 1.921875 32.25 1.921875 C 35.632812 1.921875 38.601562 1.394531 41.15625 0.34375 C 43.71875 -0.707031 45.867188 -2.03125 47.609375 -3.625 C 49.347656 -5.226562 50.71875 -6.921875 51.71875 -8.703125 C 52.726562 -10.492188 53.460938 -12.117188 53.921875 -13.578125 C 54.109375 -14.128906 54.203125 -14.5 54.203125 -14.6875 C 54.203125 -15.507812 53.835938 -15.921875 53.109375 -15.921875 C 52.554688 -15.921875 52.144531 -15.460938 51.875 -14.546875 C 51.320312 -12.804688 50.492188 -11.085938 49.390625 -9.390625 C 48.296875 -7.703125 46.945312 -6.171875 45.34375 -4.796875 C 43.75 -3.429688 41.875 -2.335938 39.71875 -1.515625 C 37.570312 -0.691406 35.21875 -0.28125 32.65625 -0.28125 C 29.820312 -0.28125 27.507812 -0.691406 25.71875 -1.515625 C 23.9375 -2.335938 22.519531 -3.6875 21.46875 -5.5625 C 20.414062 -7.4375 19.707031 -9.859375 19.34375 -12.828125 C 18.976562 -15.804688 18.796875 -19.441406 18.796875 -23.734375 Z M 18.796875 -23.734375" transform="translate(311.976 295.285)"/></g></g></g><g fill="#FFF"><g><g><path d="M 34.703125 2.140625 C 39.296875 2.140625 43.453125 1.097656 47.171875 -0.984375 C 50.890625 -3.078125 54.046875 -5.703125 56.640625 -8.859375 C 59.242188 -12.023438 61.257812 -15.492188 62.6875 -19.265625 C 64.113281 -23.035156 64.828125 -26.601562 64.828125 -29.96875 C 64.828125 -33.332031 64.113281 -36.898438 62.6875 -40.671875 C 61.257812 -44.441406 59.242188 -47.90625 56.640625 -51.0625 C 54.046875 -54.226562 50.890625 -56.851562 47.171875 -58.9375 C 43.453125 -61.03125 39.296875 -62.078125 34.703125 -62.078125 C 30.117188 -62.078125 25.96875 -61.03125 22.25 -58.9375 C 18.53125 -56.851562 15.34375 -54.226562 12.6875 -51.0625 C 10.039062 -47.90625 8.003906 -44.441406 6.578125 -40.671875 C 5.148438 -36.898438 4.4375 -33.332031 4.4375 -29.96875 C 4.4375 -26.601562 5.148438 -23.035156 6.578125 -19.265625 C 8.003906 -15.492188 10.039062 -12.023438 12.6875 -8.859375 C 15.34375 -5.703125 18.53125 -3.078125 22.25 -0.984375 C 25.96875 1.097656 30.117188 2.140625 34.703125 2.140625 Z M 20.328125 -33.328125 C 20.328125 -37.609375 20.503906 -41.378906 20.859375 -44.640625 C 21.222656 -47.898438 21.914062 -50.648438 22.9375 -52.890625 C 23.957031 -55.140625 25.410156 -56.820312 27.296875 -57.9375 C 29.179688 -59.0625 31.648438 -59.625 34.703125 -59.625 C 37.765625 -59.625 40.238281 -59.0625 42.125 -57.9375 C 44.007812 -56.820312 45.4375 -55.140625 46.40625 -52.890625 C 47.375 -50.648438 48.035156 -47.898438 48.390625 -44.640625 C 48.742188 -41.378906 48.921875 -37.609375 48.921875 -33.328125 L 48.921875 -26.75 C 48.921875 -22.164062 48.742188 -18.21875 48.390625 -14.90625 C 48.035156 -11.59375 47.375 -8.863281 46.40625 -6.71875 C 45.4375 -4.582031 44.007812 -2.976562 42.125 -1.90625 C 40.238281 -0.84375 37.765625 -0.3125 34.703125 -0.3125 C 31.648438 -0.3125 29.179688 -0.84375 27.296875 -1.90625 C 25.410156 -2.976562 23.957031 -4.582031 22.9375 -6.71875 C 21.914062 -8.863281 21.222656 -11.59375 20.859375 -14.90625 C 20.503906 -18.21875 20.328125 -22.164062 20.328125 -26.75 Z M 20.328125 -33.328125" transform="translate(41.084 297.112)"/></g></g></g><g clip-path="url(#b)"><path fill="#FF914D" d="M 87.648438 272.636719 C 86.515625 273.601562 78.667969 275.414062 76.292969 275.414062 C 76.285156 275.414062 76.273438 275.414062 76.265625 275.414062 C 75.800781 275.410156 75.183594 275.347656 74.472656 275.273438 C 72.792969 275.101562 70.703125 274.886719 69.210938 275.363281 C 68.367188 275.632812 67.554688 276.246094 66.960938 276.695312 C 66.75 276.859375 66.5625 277 66.4375 277.074219 C 66.257812 277.183594 66.113281 277.222656 65.867188 277.132812 C 65.160156 276.882812 62.738281 274.359375 62.683594 273.675781 C 62.667969 273.496094 62.714844 273.394531 62.800781 273.265625 C 63.78125 271.828125 67.707031 269.332031 69.003906 268.761719 C 70.234375 268.222656 71.964844 267.597656 74.125 267.597656 C 74.957031 267.597656 75.855469 267.691406 76.8125 267.917969 C 78.484375 268.308594 81.054688 269.09375 81.734375 269.476562 C 82.160156 269.71875 82.363281 270.109375 82.28125 270.527344 C 82.222656 270.832031 81.980469 271.183594 81.488281 271.246094 C 80.929688 271.3125 80.246094 271.195312 79.519531 271.066406 C 78.3125 270.855469 76.949219 270.617188 75.792969 271.222656 C 75.605469 271.320312 75.53125 271.550781 75.628906 271.742188 C 75.726562 271.929688 75.960938 272.003906 76.148438 271.90625 C 77.070312 271.421875 78.25 271.628906 79.386719 271.828125 C 79.996094 271.933594 80.582031 272.039062 81.128906 272.039062 C 81.277344 272.039062 81.664062 272.003906 81.703125 271.996094 C 82.230469 271.9375 82.828125 271.800781 83.460938 271.65625 C 84.925781 271.320312 86.585938 270.941406 87.445312 271.554688 C 87.664062 271.710938 87.804688 271.964844 87.816406 272.214844 C 87.820312 272.339844 87.792969 272.511719 87.648438 272.636719 Z M 67.554688 264.164062 C 67.554688 263.804688 67.84375 263.511719 68.203125 263.511719 L 83.847656 263.511719 C 84.207031 263.511719 84.5 263.804688 84.5 264.164062 L 84.5 270.644531 C 84.089844 270.722656 83.683594 270.8125 83.289062 270.90625 C 83.175781 270.933594 83.058594 270.957031 82.945312 270.984375 C 82.984375 270.886719 83.015625 270.78125 83.035156 270.675781 C 83.183594 269.925781 82.828125 269.210938 82.109375 268.804688 C 81.304688 268.347656 78.539062 267.527344 76.988281 267.164062 C 73.324219 266.304688 70.5 267.261719 68.695312 268.054688 C 68.410156 268.179688 68.011719 268.390625 67.554688 268.652344 Z M 68.664062 261.457031 C 68.664062 261.242188 68.839844 261.066406 69.058594 261.066406 L 82.996094 261.066406 C 83.210938 261.066406 83.386719 261.242188 83.386719 261.457031 L 83.386719 262.742188 L 68.664062 262.742188 Z M 87.894531 270.929688 C 87.207031 270.433594 86.261719 270.394531 85.265625 270.519531 L 85.265625 264.164062 C 85.265625 263.484375 84.789062 262.917969 84.15625 262.773438 L 84.15625 261.457031 C 84.15625 260.816406 83.632812 260.292969 82.996094 260.292969 L 69.058594 260.292969 C 68.417969 260.292969 67.894531 260.816406 67.894531 261.457031 L 67.894531 262.773438 C 67.261719 262.917969 66.785156 263.484375 66.785156 264.164062 L 66.785156 269.113281 C 65.058594 270.183594 62.902344 271.75 62.167969 272.828125 C 62.03125 273.027344 61.882812 273.308594 61.917969 273.738281 C 62.003906 274.800781 64.703125 277.535156 65.609375 277.859375 C 65.792969 277.925781 65.957031 277.953125 66.109375 277.953125 C 66.425781 277.953125 66.664062 277.835938 66.835938 277.734375 C 66.992188 277.636719 67.195312 277.484375 67.425781 277.3125 C 67.976562 276.894531 68.726562 276.324219 69.445312 276.097656 C 70.78125 275.667969 72.785156 275.875 74.394531 276.039062 C 75.125 276.117188 75.757812 276.179688 76.261719 276.183594 C 76.273438 276.183594 76.28125 276.183594 76.289062 276.183594 C 78.683594 276.183594 86.789062 274.382812 88.144531 273.222656 C 88.445312 272.96875 88.601562 272.597656 88.582031 272.183594 C 88.5625 271.691406 88.304688 271.222656 87.894531 270.929688"/></g><path fill="#FF914D" d="M 77.121094 255.503906 C 77.71875 256.105469 78.6875 256.101562 79.324219 255.496094 C 80.0625 254.796875 80.457031 253.605469 80.378906 252.308594 C 80.375 252.269531 80.34375 252.238281 80.304688 252.234375 C 79.121094 252.164062 77.992188 252.5 77.285156 253.136719 C 76.921875 253.46875 76.703125 253.929688 76.691406 254.40625 C 76.679688 254.824219 76.832031 255.214844 77.121094 255.503906 Z M 78.203125 256.726562 C 77.613281 256.726562 77.027344 256.5 76.578125 256.050781 C 76.140625 255.609375 75.90625 255.019531 75.921875 254.386719 C 75.941406 253.699219 76.25 253.035156 76.773438 252.566406 C 77.640625 251.78125 78.945312 251.378906 80.351562 251.464844 C 80.777344 251.492188 81.117188 251.832031 81.144531 252.257812 C 81.238281 253.78125 80.753906 255.203125 79.851562 256.058594 C 79.382812 256.503906 78.789062 256.726562 78.203125 256.726562"/><path fill="#FF914D" d="M 74.386719 255.640625 L 74.390625 255.640625 Z M 70.089844 250.632812 C 69.941406 250.632812 69.792969 250.636719 69.644531 250.648438 C 69.519531 250.65625 69.421875 250.753906 69.414062 250.875 C 69.300781 252.695312 69.859375 254.371094 70.898438 255.359375 C 71.828125 256.238281 73.242188 256.242188 74.113281 255.367188 C 74.539062 254.945312 74.761719 254.371094 74.746094 253.757812 C 74.726562 253.066406 74.414062 252.394531 73.882812 251.917969 C 72.976562 251.101562 71.582031 250.632812 70.089844 250.632812 Z M 72.535156 256.792969 C 71.765625 256.792969 70.988281 256.503906 70.371094 255.917969 C 69.167969 254.773438 68.519531 252.871094 68.648438 250.828125 C 68.679688 250.316406 69.089844 249.910156 69.597656 249.875 C 71.457031 249.761719 73.253906 250.3125 74.398438 251.34375 C 75.085938 251.964844 75.492188 252.835938 75.515625 253.738281 C 75.535156 254.566406 75.234375 255.339844 74.65625 255.914062 C 74.070312 256.5 73.304688 256.792969 72.535156 256.792969"/><g clip-path="url(#c)"><path fill="#FF914D" d="M 85.652344 248.621094 L 85.078125 248.933594 C 84.914062 249.023438 84.78125 249.160156 84.691406 249.324219 L 84.378906 249.902344 C 84.324219 250 84.230469 250.011719 84.191406 250.011719 C 84.15625 250.011719 84.0625 250 84.007812 249.902344 L 83.695312 249.324219 C 83.605469 249.160156 83.46875 249.023438 83.304688 248.933594 L 82.730469 248.621094 C 82.632812 248.566406 82.621094 248.472656 82.621094 248.433594 C 82.621094 248.398438 82.632812 248.304688 82.730469 248.25 L 83.304688 247.933594 C 83.46875 247.84375 83.605469 247.710938 83.695312 247.542969 L 84.007812 246.96875 C 84.0625 246.871094 84.15625 246.859375 84.191406 246.859375 C 84.230469 246.859375 84.324219 246.871094 84.378906 246.96875 L 84.691406 247.542969 C 84.78125 247.710938 84.914062 247.84375 85.078125 247.933594 L 85.652344 248.25 C 85.75 248.304688 85.761719 248.398438 85.761719 248.433594 C 85.761719 248.472656 85.75 248.566406 85.652344 248.621094 Z M 86.023438 247.574219 L 85.449219 247.257812 C 85.414062 247.238281 85.382812 247.210938 85.363281 247.175781 L 85.050781 246.597656 C 84.878906 246.285156 84.550781 246.089844 84.191406 246.089844 C 83.835938 246.089844 83.503906 246.285156 83.335938 246.597656 L 83.019531 247.175781 C 83 247.210938 82.972656 247.238281 82.9375 247.257812 L 82.363281 247.574219 C 82.050781 247.746094 81.855469 248.074219 81.855469 248.433594 C 81.855469 248.792969 82.050781 249.125 82.363281 249.296875 L 82.9375 249.609375 C 82.972656 249.628906 83 249.660156 83.019531 249.695312 L 83.335938 250.269531 C 83.503906 250.585938 83.835938 250.78125 84.191406 250.78125 C 84.550781 250.78125 84.878906 250.585938 85.050781 250.269531 L 85.363281 249.695312 C 85.382812 249.660156 85.414062 249.628906 85.449219 249.609375 L 86.023438 249.296875 C 86.335938 249.125 86.53125 248.792969 86.53125 248.433594 C 86.53125 248.074219 86.335938 247.746094 86.023438 247.574219"/></g><path fill="#FF914D" d="M 78.496094 254.542969 L 78.460938 254.535156 C 78.5 254.507812 78.539062 254.476562 78.582031 254.449219 C 78.757812 254.332031 78.808594 254.09375 78.691406 253.914062 C 78.574219 253.738281 78.335938 253.6875 78.15625 253.804688 C 77.890625 253.984375 77.644531 254.175781 77.417969 254.378906 C 77.402344 254.394531 77.320312 254.46875 77.3125 254.476562 C 76.507812 255.230469 75.964844 256.160156 75.65625 257.304688 C 75.25 256.1875 74.617188 255.167969 73.898438 254.34375 C 73.875 254.304688 73.679688 254.105469 73.617188 254.039062 L 73.753906 253.050781 C 73.78125 252.839844 73.636719 252.644531 73.425781 252.617188 C 73.214844 252.585938 73.019531 252.734375 72.992188 252.945312 L 72.929688 253.402344 C 72.753906 253.257812 72.578125 253.125 72.398438 253.007812 C 72.222656 252.886719 71.984375 252.9375 71.867188 253.113281 C 71.75 253.292969 71.800781 253.53125 71.976562 253.648438 C 72.230469 253.820312 72.488281 254.027344 72.742188 254.253906 L 72.144531 254.324219 C 71.933594 254.347656 71.78125 254.539062 71.804688 254.75 C 71.828125 254.945312 71.996094 255.089844 72.1875 255.089844 C 72.203125 255.089844 73.414062 254.957031 73.414062 254.957031 C 74.503906 256.234375 75.355469 258.007812 75.355469 259.839844 L 75.355469 260.679688 C 75.355469 260.890625 75.527344 261.066406 75.738281 261.066406 C 75.953125 261.066406 76.125 260.890625 76.125 260.679688 L 76.125 259.839844 C 76.125 257.757812 76.636719 256.242188 77.726562 255.148438 L 78.3125 255.292969 C 78.34375 255.300781 78.375 255.304688 78.40625 255.304688 C 78.578125 255.304688 78.734375 255.1875 78.777344 255.011719 C 78.828125 254.804688 78.703125 254.59375 78.496094 254.542969"/><path fill="#FF914D" d="M 64.914062 256.101562 C 64.894531 256.101562 64.886719 256.113281 64.882812 256.121094 L 64.660156 256.527344 C 64.589844 256.660156 64.480469 256.773438 64.34375 256.847656 L 63.9375 257.070312 C 63.933594 257.070312 63.921875 257.078125 63.921875 257.097656 C 63.921875 257.117188 63.933594 257.125 63.9375 257.128906 L 64.34375 257.351562 C 64.480469 257.425781 64.589844 257.535156 64.664062 257.671875 L 64.882812 258.074219 C 64.890625 258.089844 64.9375 258.089844 64.941406 258.078125 L 65.164062 257.671875 C 65.238281 257.535156 65.347656 257.425781 65.484375 257.351562 L 65.886719 257.128906 C 65.894531 257.125 65.90625 257.117188 65.90625 257.097656 C 65.90625 257.078125 65.894531 257.070312 65.886719 257.070312 L 65.484375 256.847656 C 65.347656 256.773438 65.238281 256.660156 65.164062 256.527344 L 64.941406 256.121094 C 64.941406 256.113281 64.933594 256.101562 64.914062 256.101562 Z M 64.914062 258.867188 C 64.621094 258.867188 64.351562 258.703125 64.210938 258.445312 L 63.988281 258.042969 L 63.570312 257.804688 C 63.3125 257.664062 63.152344 257.394531 63.152344 257.097656 C 63.152344 256.804688 63.3125 256.535156 63.570312 256.390625 L 63.972656 256.167969 L 64.210938 255.75 C 64.351562 255.492188 64.621094 255.332031 64.914062 255.332031 C 65.207031 255.332031 65.476562 255.492188 65.617188 255.75 L 65.839844 256.15625 L 66.257812 256.390625 C 66.515625 256.535156 66.675781 256.804688 66.675781 257.097656 C 66.675781 257.394531 66.515625 257.664062 66.257812 257.804688 L 65.851562 258.027344 L 65.617188 258.445312 C 65.476562 258.703125 65.207031 258.867188 64.914062 258.867188"/></svg>