<svg xmlns="http://www.w3.org/2000/svg" width="600" viewBox="0 0 600 600" height="600" version="1.0"><defs><clipPath id="a"><path d="M 279.414062 81.460938 L 586.164062 81.460938 L 586.164062 388.210938 L 279.414062 388.210938 Z M 279.414062 81.460938"/></clipPath><clipPath id="b"><path d="M 99.007812 416 L 141.761719 416 L 141.761719 444.785156 L 99.007812 444.785156 Z M 99.007812 416"/></clipPath><clipPath id="c"><path d="M 130 393.707031 L 139 393.707031 L 139 402 L 130 402 Z M 130 393.707031"/></clipPath></defs><g clip-path="url(#a)"><path fill="#FFF" d="M 432.789062 81.460938 C 348.085938 81.460938 279.414062 150.132812 279.414062 234.835938 C 279.414062 303.085938 324.03125 360.871094 385.664062 380.757812 C 380.179688 339.820312 383.363281 291.585938 400.105469 253.433594 C 418.484375 211.523438 467.375 187.773438 467.375 187.773438 C 467.375 187.773438 412.875 198.128906 385.703125 243.425781 C 371.285156 267.441406 363.285156 309.886719 363.285156 309.886719 C 363.285156 309.886719 311.902344 240.523438 373.558594 182.34375 C 414.742188 143.460938 500.824219 151.335938 524.890625 165.214844 C 493.011719 215.792969 511.851562 268.578125 477.230469 300.351562 C 439.113281 335.320312 396.949219 329.367188 396.949219 329.367188 C 396.949219 329.367188 395.964844 353.191406 406.804688 385.832031 C 415.253906 387.289062 423.90625 388.210938 432.789062 388.210938 C 517.488281 388.210938 586.164062 319.535156 586.164062 234.835938 C 586.164062 150.132812 517.488281 81.460938 432.789062 81.460938 Z M 432.789062 81.460938"/></g><g fill="#FF914D"><g><g><path d="M 133.0625 -273.4375 L 13.015625 -273.4375 L 13.015625 -266.9375 L 48.828125 -266.9375 L 48.828125 -6.515625 L 13.015625 -6.515625 L 13.015625 0 L 133.0625 0 C 152.050781 0 169.410156 -3.320312 185.140625 -9.96875 C 200.878906 -16.613281 214.304688 -26.039062 225.421875 -38.25 C 236.546875 -50.457031 245.160156 -65.171875 251.265625 -82.390625 C 257.367188 -99.617188 260.421875 -118.8125 260.421875 -139.96875 C 260.421875 -159.78125 257.300781 -177.890625 251.0625 -194.296875 C 244.820312 -210.710938 236.070312 -224.816406 224.8125 -236.609375 C 213.550781 -248.410156 200.125 -257.5 184.53125 -263.875 C 168.9375 -270.25 151.78125 -273.4375 133.0625 -273.4375 Z M 215.65625 -150.15625 L 215.65625 -129.796875 C 215.65625 -105.660156 213.414062 -85.65625 208.9375 -69.78125 C 204.46875 -53.914062 198.4375 -41.300781 190.84375 -31.9375 C 183.25 -22.582031 174.429688 -16.003906 164.390625 -12.203125 C 154.347656 -8.410156 143.632812 -6.515625 132.25 -6.515625 L 88.296875 -6.515625 L 88.296875 -266.9375 L 132.25 -266.9375 C 143.363281 -266.9375 153.9375 -264.96875 163.96875 -261.03125 C 174.007812 -257.09375 182.894531 -250.582031 190.625 -241.5 C 198.363281 -232.414062 204.46875 -220.410156 208.9375 -205.484375 C 213.414062 -190.566406 215.65625 -172.125 215.65625 -150.15625 Z M 215.65625 -150.15625" transform="translate(9.596 369.63)"/></g></g></g><g fill="#FFF"><g><g><path d="M 33.9375 -86.953125 L 44.015625 -86.953125 L 44.015625 -46.65625 C 40.742188 -51.4375 35.925781 -53.828125 29.5625 -53.828125 C 26.382812 -53.828125 23.289062 -53.03125 20.28125 -51.4375 C 17.28125 -49.84375 14.628906 -47.742188 12.328125 -45.140625 C 10.023438 -42.535156 8.164062 -39.570312 6.75 -36.25 C 5.34375 -32.9375 4.640625 -29.554688 4.640625 -26.109375 C 4.640625 -22.398438 5.410156 -18.84375 6.953125 -15.4375 C 8.503906 -12.039062 10.472656 -9.0625 12.859375 -6.5 C 15.242188 -3.9375 17.894531 -1.898438 20.8125 -0.390625 C 23.726562 1.109375 26.507812 1.859375 29.15625 1.859375 C 32.695312 1.859375 35.660156 0.972656 38.046875 -0.796875 C 40.429688 -2.566406 42.421875 -4.597656 44.015625 -6.890625 L 44.015625 0 L 65.484375 0 L 65.484375 -2.125 L 55.40625 -2.125 L 55.40625 -89.078125 L 33.9375 -89.078125 Z M 18.421875 -29.421875 C 18.421875 -37.640625 19.304688 -43.40625 21.078125 -46.71875 C 22.847656 -50.039062 25.851562 -51.703125 30.09375 -51.703125 C 31.945312 -51.703125 33.601562 -51.390625 35.0625 -50.765625 C 36.519531 -50.148438 37.800781 -49.332031 38.90625 -48.3125 C 40.007812 -47.300781 40.976562 -46.21875 41.8125 -45.0625 C 42.65625 -43.914062 43.390625 -42.8125 44.015625 -41.75 L 44.015625 -10.734375 C 42.066406 -7.460938 39.921875 -4.898438 37.578125 -3.046875 C 35.234375 -1.191406 32.601562 -0.265625 29.6875 -0.265625 C 27.832031 -0.265625 26.195312 -0.640625 24.78125 -1.390625 C 23.375 -2.140625 22.207031 -3.375 21.28125 -5.09375 C 20.351562 -6.820312 19.644531 -9.144531 19.15625 -12.0625 C 18.664062 -14.976562 18.421875 -18.601562 18.421875 -22.9375 Z M 18.421875 -29.421875" transform="translate(9.153 476.208)"/></g></g></g><g fill="#FFF"><g><g><path d="M 49.703125 -23.4375 C 49.703125 -18.4375 49.429688 -14.441406 48.890625 -11.453125 C 48.359375 -8.460938 47.578125 -6.160156 46.546875 -4.546875 C 45.523438 -2.941406 44.296875 -1.867188 42.859375 -1.328125 C 41.429688 -0.796875 39.828125 -0.53125 38.046875 -0.53125 C 36.171875 -0.53125 34.382812 -0.910156 32.6875 -1.671875 C 30.988281 -2.429688 29.46875 -3.414062 28.125 -4.625 C 26.789062 -5.832031 25.71875 -7.148438 24.90625 -8.578125 C 24.101562 -10.003906 23.703125 -11.382812 23.703125 -12.71875 L 23.703125 -38.71875 C 23.703125 -40.320312 24.148438 -41.925781 25.046875 -43.53125 C 25.941406 -45.144531 27.101562 -46.597656 28.53125 -47.890625 C 29.957031 -49.179688 31.539062 -50.226562 33.28125 -51.03125 C 35.03125 -51.832031 36.75 -52.234375 38.4375 -52.234375 C 39.875 -52.234375 41.257812 -51.988281 42.59375 -51.5 C 43.9375 -51.007812 45.144531 -49.984375 46.21875 -48.421875 C 47.289062 -46.859375 48.140625 -44.582031 48.765625 -41.59375 C 49.390625 -38.601562 49.703125 -34.609375 49.703125 -29.609375 Z M 23.703125 -45.671875 L 23.703125 -52.515625 L 3.484375 -52.515625 L 3.484375 -50.359375 L 12.1875 -50.359375 L 12.1875 33.75 L 3.484375 33.75 L 3.484375 35.90625 L 32.421875 35.90625 L 32.421875 33.75 L 23.703125 33.75 L 23.703125 -5.765625 C 25.222656 -3.523438 27.1875 -1.691406 29.59375 -0.265625 C 32.007812 1.160156 34.914062 1.875 38.3125 1.875 C 41.53125 1.875 44.65625 1.117188 47.6875 -0.390625 C 50.71875 -1.910156 53.414062 -3.941406 55.78125 -6.484375 C 58.15625 -9.035156 60.054688 -12.03125 61.484375 -15.46875 C 62.910156 -18.90625 63.625 -22.546875 63.625 -26.390625 C 63.625 -30.234375 62.882812 -33.847656 61.40625 -37.234375 C 59.9375 -40.628906 57.992188 -43.597656 55.578125 -46.140625 C 53.171875 -48.691406 50.472656 -50.703125 47.484375 -52.171875 C 44.492188 -53.648438 41.523438 -54.390625 38.578125 -54.390625 C 34.828125 -54.390625 31.769531 -53.453125 29.40625 -51.578125 C 27.039062 -49.703125 25.140625 -47.734375 23.703125 -45.671875 Z M 23.703125 -45.671875" transform="translate(202.303 441.792)"/></g></g></g><g fill="#FFF"><g><g><path d="M 25.3125 -2.125 L 25.3125 -89.078125 L 4.640625 -89.078125 L 4.640625 -86.953125 L 13.921875 -86.953125 L 13.921875 -2.125 L 4.640625 -2.125 L 4.640625 0 L 34.59375 0 L 34.59375 -2.125 Z M 25.3125 -2.125" transform="translate(169.674 476.208)"/></g></g></g><g fill="#FFF"><g><g><path d="M 26.171875 -86.921875 C 21.316406 -83.734375 18.890625 -79.941406 18.890625 -75.546875 C 18.890625 -73.421875 19.609375 -71.484375 21.046875 -69.734375 C 22.484375 -67.992188 24.492188 -67.125 27.078125 -67.125 C 29.648438 -67.125 31.734375 -67.878906 33.328125 -69.390625 C 34.921875 -70.910156 35.71875 -72.804688 35.71875 -75.078125 C 35.71875 -76.140625 35.523438 -77.238281 35.140625 -78.375 C 34.765625 -79.519531 34.046875 -80.625 32.984375 -81.6875 C 32.234375 -82.445312 31.628906 -82.976562 31.171875 -83.28125 C 30.710938 -83.582031 30.484375 -83.960938 30.484375 -84.421875 C 30.484375 -85.023438 30.9375 -85.628906 31.84375 -86.234375 C 32.757812 -86.835938 33.898438 -87.367188 35.265625 -87.828125 C 36.628906 -88.285156 38.179688 -88.664062 39.921875 -88.96875 C 41.671875 -89.269531 43.378906 -89.421875 45.046875 -89.421875 C 49.753906 -89.421875 53.472656 -88.507812 56.203125 -86.6875 C 58.929688 -84.863281 60.296875 -81.375 60.296875 -76.21875 L 60.296875 -49.375 C 53.316406 -49.375 46.789062 -48.648438 40.71875 -47.203125 C 34.65625 -45.765625 29.347656 -43.679688 24.796875 -40.953125 C 20.242188 -38.222656 16.675781 -34.847656 14.09375 -30.828125 C 11.519531 -26.804688 10.234375 -22.296875 10.234375 -17.296875 C 10.234375 -13.648438 10.878906 -10.5 12.171875 -7.84375 C 13.460938 -5.195312 15.242188 -3.078125 17.515625 -1.484375 C 19.796875 0.109375 22.414062 1.285156 25.375 2.046875 C 28.332031 2.804688 31.476562 3.1875 34.8125 3.1875 C 38.300781 3.1875 41.445312 2.769531 44.25 1.9375 C 47.0625 1.101562 49.566406 0.0390625 51.765625 -1.25 C 53.960938 -2.539062 55.816406 -3.90625 57.328125 -5.34375 C 58.847656 -6.789062 60.066406 -8.195312 60.984375 -9.5625 C 61.429688 -6.375 62.867188 -3.453125 65.296875 -0.796875 C 67.722656 1.859375 71.972656 3.1875 78.046875 3.1875 C 81.984375 3.1875 85.28125 2.578125 87.9375 1.359375 C 90.59375 0.148438 92.753906 -1.285156 94.421875 -2.953125 C 96.085938 -4.617188 97.257812 -6.320312 97.9375 -8.0625 C 98.625 -9.8125 98.96875 -11.144531 98.96875 -12.0625 C 98.96875 -12.820312 98.742188 -13.203125 98.296875 -13.203125 C 97.835938 -13.203125 97.304688 -12.59375 96.703125 -11.375 C 95.484375 -8.800781 93.960938 -6.71875 92.140625 -5.125 C 90.328125 -3.53125 88.359375 -2.734375 86.234375 -2.734375 C 83.203125 -2.734375 81.378906 -3.984375 80.765625 -6.484375 C 80.160156 -8.984375 79.859375 -12.4375 79.859375 -16.84375 L 79.859375 -71.90625 C 79.859375 -78.425781 77.429688 -83.46875 72.578125 -87.03125 C 67.722656 -90.59375 60.289062 -92.375 50.28125 -92.375 C 45.582031 -92.375 41.070312 -91.878906 36.75 -90.890625 C 32.425781 -89.910156 28.898438 -88.585938 26.171875 -86.921875 Z M 60.296875 -47.09375 L 60.296875 -15.46875 C 60.296875 -14.101562 59.648438 -12.660156 58.359375 -11.140625 C 57.066406 -9.628906 55.472656 -8.226562 53.578125 -6.9375 C 51.679688 -5.644531 49.707031 -4.617188 47.65625 -3.859375 C 45.613281 -3.109375 43.910156 -2.734375 42.546875 -2.734375 C 37.847656 -2.734375 34.285156 -4.550781 31.859375 -8.1875 C 29.429688 -11.832031 28.21875 -16.765625 28.21875 -22.984375 C 28.21875 -27.984375 29.125 -32 30.9375 -35.03125 C 32.757812 -38.070312 35.148438 -40.425781 38.109375 -42.09375 C 41.066406 -43.757812 44.476562 -44.929688 48.34375 -45.609375 C 52.21875 -46.296875 56.203125 -46.789062 60.296875 -47.09375 Z M 60.296875 -47.09375" transform="translate(254.21 479.895)"/></g></g></g><g fill="#FF914D"><g><g><path d="M 40.75 -67.0625 L 40.75 -83.203125 L 7.640625 -83.203125 L 7.640625 -79.796875 L 22.5 -79.796875 L 22.5 -3.390625 L 7.640625 -3.390625 L 7.640625 0 L 55.609375 0 L 55.609375 -3.390625 L 40.75 -3.390625 L 40.75 -56.03125 C 40.75 -58.4375 41.382812 -61.019531 42.65625 -63.78125 C 43.925781 -66.539062 45.585938 -69.117188 47.640625 -71.515625 C 49.691406 -73.921875 52.023438 -75.898438 54.640625 -77.453125 C 57.265625 -79.015625 59.992188 -79.796875 62.828125 -79.796875 C 66.921875 -79.796875 69.921875 -78.519531 71.828125 -75.96875 C 73.742188 -73.425781 74.703125 -69.394531 74.703125 -63.875 L 74.703125 -3.390625 L 59.84375 -3.390625 L 59.84375 0 L 107.8125 0 L 107.8125 -3.390625 L 92.953125 -3.390625 L 92.953125 -65.375 C 92.953125 -72.726562 90.863281 -77.816406 86.6875 -80.640625 C 82.519531 -83.472656 77.179688 -84.890625 70.671875 -84.890625 C 62.890625 -84.890625 56.554688 -83.117188 51.671875 -79.578125 C 46.796875 -76.046875 43.15625 -71.875 40.75 -67.0625 Z M 40.75 -67.0625" transform="translate(349.57 477.418)"/></g></g></g><g fill="#FF914D"><g><g><path d="M 43.75 -87.046875 L 8 -87.046875 L 8 -83.5 L 24.65625 -83.5 L 24.65625 -3.546875 L 8 -3.546875 L 8 0 L 60.40625 0 L 60.40625 -3.546875 L 43.75 -3.546875 Z M 45.53125 -128.140625 C 45.53125 -131.398438 44.414062 -134.140625 42.1875 -136.359375 C 39.96875 -138.578125 37.234375 -139.6875 33.984375 -139.6875 C 30.722656 -139.6875 27.984375 -138.578125 25.765625 -136.359375 C 23.546875 -134.140625 22.4375 -131.398438 22.4375 -128.140625 C 22.4375 -124.878906 23.546875 -122.140625 25.765625 -119.921875 C 27.984375 -117.703125 30.722656 -116.59375 33.984375 -116.59375 C 37.234375 -116.59375 39.96875 -117.703125 42.1875 -119.921875 C 44.414062 -122.140625 45.53125 -124.878906 45.53125 -128.140625 Z M 45.53125 -128.140625" transform="translate(454.931 475.679)"/></g></g></g><g fill="#FF914D"><g><g><path d="M 30.078125 -37.984375 L 30.078125 -47.640625 C 30.078125 -54.816406 30.515625 -60.816406 31.390625 -65.640625 C 32.273438 -70.472656 33.628906 -74.390625 35.453125 -77.390625 C 37.285156 -80.390625 39.59375 -82.507812 42.375 -83.75 C 45.15625 -85 48.445312 -85.625 52.25 -85.625 C 57.664062 -85.625 61.359375 -84.925781 63.328125 -83.53125 C 65.304688 -82.144531 66.296875 -81.160156 66.296875 -80.578125 C 66.296875 -79.992188 66.078125 -79.476562 65.640625 -79.03125 C 64.617188 -77.863281 63.851562 -76.65625 63.34375 -75.40625 C 62.832031 -74.164062 62.578125 -72.59375 62.578125 -70.6875 C 62.578125 -67.757812 63.523438 -65.523438 65.421875 -63.984375 C 67.328125 -62.453125 69.523438 -61.6875 72.015625 -61.6875 C 74.941406 -61.6875 77.28125 -62.566406 79.03125 -64.328125 C 80.789062 -66.085938 81.671875 -68.359375 81.671875 -71.140625 C 81.671875 -73.910156 80.71875 -76.429688 78.8125 -78.703125 C 76.914062 -80.972656 74.539062 -82.875 71.6875 -84.40625 C 68.832031 -85.945312 65.71875 -87.117188 62.34375 -87.921875 C 58.976562 -88.734375 55.757812 -89.140625 52.6875 -89.140625 C 46.976562 -89.140625 41.414062 -88.003906 36 -85.734375 C 30.582031 -83.460938 25.753906 -80.3125 21.515625 -76.28125 C 17.273438 -72.257812 13.835938 -67.394531 11.203125 -61.6875 C 8.566406 -55.976562 7.25 -49.6875 7.25 -42.8125 C 7.25 -35.78125 8.523438 -29.445312 11.078125 -23.8125 C 13.640625 -18.1875 17.003906 -13.359375 21.171875 -9.328125 C 25.347656 -5.304688 30.109375 -2.234375 35.453125 -0.109375 C 40.796875 2.015625 46.175781 3.078125 51.59375 3.078125 C 57.007812 3.078125 61.765625 2.234375 65.859375 0.546875 C 69.960938 -1.128906 73.40625 -3.25 76.1875 -5.8125 C 78.96875 -8.375 81.160156 -11.082031 82.765625 -13.9375 C 84.378906 -16.789062 85.550781 -19.390625 86.28125 -21.734375 C 86.570312 -22.609375 86.71875 -23.191406 86.71875 -23.484375 C 86.71875 -24.804688 86.132812 -25.46875 84.96875 -25.46875 C 84.082031 -25.46875 83.421875 -24.734375 82.984375 -23.265625 C 82.109375 -20.484375 80.789062 -17.738281 79.03125 -15.03125 C 77.28125 -12.332031 75.125 -9.882812 72.5625 -7.6875 C 70 -5.488281 67 -3.726562 63.5625 -2.40625 C 60.125 -1.09375 56.351562 -0.4375 52.25 -0.4375 C 47.71875 -0.4375 44.023438 -1.09375 41.171875 -2.40625 C 38.316406 -3.726562 36.046875 -5.890625 34.359375 -8.890625 C 32.671875 -11.890625 31.535156 -15.765625 30.953125 -20.515625 C 30.367188 -25.273438 30.078125 -31.097656 30.078125 -37.984375 Z M 30.078125 -37.984375" transform="translate(499.162 472.457)"/></g></g></g><g fill="#FFF"><g><g><path d="M 55.53125 3.421875 C 62.863281 3.421875 69.503906 1.75 75.453125 -1.59375 C 81.410156 -4.9375 86.46875 -9.132812 90.625 -14.1875 C 94.789062 -19.238281 98.015625 -24.78125 100.296875 -30.8125 C 102.578125 -36.851562 103.71875 -42.566406 103.71875 -47.953125 C 103.71875 -53.328125 102.578125 -59.03125 100.296875 -65.0625 C 98.015625 -71.101562 94.789062 -76.648438 90.625 -81.703125 C 86.46875 -86.753906 81.410156 -90.953125 75.453125 -94.296875 C 69.503906 -97.640625 62.863281 -99.3125 55.53125 -99.3125 C 48.1875 -99.3125 41.539062 -97.640625 35.59375 -94.296875 C 29.644531 -90.953125 24.546875 -86.753906 20.296875 -81.703125 C 16.054688 -76.648438 12.796875 -71.101562 10.515625 -65.0625 C 8.234375 -59.03125 7.09375 -53.328125 7.09375 -47.953125 C 7.09375 -42.566406 8.234375 -36.851562 10.515625 -30.8125 C 12.796875 -24.78125 16.054688 -19.238281 20.296875 -14.1875 C 24.546875 -9.132812 29.644531 -4.9375 35.59375 -1.59375 C 41.539062 1.75 48.1875 3.421875 55.53125 3.421875 Z M 32.53125 -53.328125 C 32.53125 -60.179688 32.816406 -66.21875 33.390625 -71.4375 C 33.960938 -76.65625 35.0625 -81.054688 36.6875 -84.640625 C 38.320312 -88.222656 40.644531 -90.910156 43.65625 -92.703125 C 46.675781 -94.503906 50.632812 -95.40625 55.53125 -95.40625 C 60.425781 -95.40625 64.378906 -94.503906 67.390625 -92.703125 C 70.410156 -90.910156 72.691406 -88.222656 74.234375 -84.640625 C 75.785156 -81.054688 76.847656 -76.65625 77.421875 -71.4375 C 77.992188 -66.21875 78.28125 -60.179688 78.28125 -53.328125 L 78.28125 -42.8125 C 78.28125 -35.46875 77.992188 -29.144531 77.421875 -23.84375 C 76.847656 -18.550781 75.785156 -14.191406 74.234375 -10.765625 C 72.691406 -7.335938 70.410156 -4.765625 67.390625 -3.046875 C 64.378906 -1.335938 60.425781 -0.484375 55.53125 -0.484375 C 50.632812 -0.484375 46.675781 -1.335938 43.65625 -3.046875 C 40.644531 -4.765625 38.320312 -7.335938 36.6875 -10.765625 C 35.0625 -14.191406 33.960938 -18.550781 33.390625 -23.84375 C 32.816406 -29.144531 32.53125 -35.46875 32.53125 -42.8125 Z M 32.53125 -53.328125" transform="translate(65.734 475.379)"/></g></g></g><g clip-path="url(#b)"><path fill="#FF914D" d="M 140.234375 436.21875 C 138.425781 437.765625 125.871094 440.660156 122.066406 440.660156 C 122.054688 440.660156 122.039062 440.660156 122.027344 440.660156 C 121.28125 440.65625 120.296875 440.554688 119.15625 440.4375 C 116.46875 440.160156 113.121094 439.816406 110.738281 440.578125 C 109.390625 441.011719 108.089844 441.996094 107.140625 442.710938 C 106.796875 442.972656 106.5 443.195312 106.300781 443.316406 C 106.015625 443.492188 105.785156 443.558594 105.386719 443.414062 C 104.257812 443.011719 100.382812 438.972656 100.296875 437.878906 C 100.269531 437.597656 100.34375 437.429688 100.484375 437.222656 C 102.046875 434.925781 108.328125 430.933594 110.40625 430.019531 C 112.375 429.152344 115.144531 428.160156 118.601562 428.160156 C 119.933594 428.160156 121.371094 428.308594 122.898438 428.667969 C 125.578125 429.296875 129.6875 430.546875 130.773438 431.164062 C 131.453125 431.546875 131.78125 432.175781 131.652344 432.84375 C 131.554688 433.332031 131.171875 433.894531 130.382812 433.992188 C 129.488281 434.101562 128.390625 433.910156 127.226562 433.707031 C 125.300781 433.371094 123.117188 432.988281 121.269531 433.953125 C 120.96875 434.109375 120.851562 434.484375 121.007812 434.785156 C 121.164062 435.089844 121.535156 435.207031 121.835938 435.046875 C 123.316406 434.277344 125.199219 434.605469 127.019531 434.925781 C 127.996094 435.097656 128.933594 435.261719 129.808594 435.261719 C 130.046875 435.261719 130.664062 435.203125 130.726562 435.195312 C 131.570312 435.101562 132.527344 434.882812 133.535156 434.652344 C 135.882812 434.113281 138.539062 433.503906 139.914062 434.492188 C 140.261719 434.738281 140.488281 435.144531 140.503906 435.546875 C 140.511719 435.742188 140.472656 436.015625 140.234375 436.21875 Z M 108.085938 422.664062 C 108.085938 422.085938 108.550781 421.621094 109.125 421.621094 L 134.15625 421.621094 C 134.730469 421.621094 135.195312 422.085938 135.195312 422.664062 L 135.195312 433.03125 C 134.546875 433.15625 133.894531 433.304688 133.261719 433.449219 C 133.078125 433.492188 132.894531 433.53125 132.714844 433.574219 C 132.777344 433.417969 132.824219 433.253906 132.859375 433.082031 C 133.09375 431.882812 132.523438 430.738281 131.375 430.089844 C 130.085938 429.359375 125.660156 428.046875 123.179688 427.464844 C 117.320312 426.089844 112.800781 427.617188 109.910156 428.886719 C 109.457031 429.089844 108.820312 429.421875 108.085938 429.847656 Z M 109.863281 418.332031 C 109.863281 417.988281 110.144531 417.703125 110.492188 417.703125 L 132.792969 417.703125 C 133.136719 417.703125 133.417969 417.988281 133.417969 418.332031 L 133.417969 420.386719 L 109.863281 420.386719 Z M 140.628906 433.484375 C 139.53125 432.695312 138.019531 432.628906 136.425781 432.832031 L 136.425781 422.664062 C 136.425781 421.578125 135.664062 420.667969 134.648438 420.441406 L 134.648438 418.332031 C 134.648438 417.304688 133.816406 416.46875 132.792969 416.46875 L 110.492188 416.46875 C 109.464844 416.46875 108.632812 417.304688 108.632812 418.332031 L 108.632812 420.441406 C 107.617188 420.667969 106.855469 421.578125 106.855469 422.664062 L 106.855469 430.582031 C 104.089844 432.296875 100.644531 434.800781 99.46875 436.527344 C 99.253906 436.84375 99.011719 437.296875 99.070312 437.980469 C 99.207031 439.683594 103.523438 444.058594 104.972656 444.578125 C 105.269531 444.683594 105.535156 444.726562 105.773438 444.726562 C 106.277344 444.726562 106.664062 444.539062 106.9375 444.375 C 107.191406 444.21875 107.511719 443.976562 107.882812 443.699219 C 108.761719 443.03125 109.964844 442.121094 111.113281 441.753906 C 113.25 441.070312 116.457031 441.398438 119.027344 441.664062 C 120.203125 441.785156 121.214844 441.890625 122.019531 441.894531 C 122.035156 441.894531 122.046875 441.894531 122.0625 441.894531 C 125.890625 441.894531 138.863281 439.011719 141.035156 437.15625 C 141.511719 436.75 141.761719 436.160156 141.734375 435.496094 C 141.699219 434.707031 141.285156 433.957031 140.628906 433.484375"/></g><path fill="#FF914D" d="M 123.394531 408.808594 C 124.351562 409.765625 125.902344 409.761719 126.917969 408.792969 C 128.101562 407.671875 128.730469 405.765625 128.605469 403.691406 C 128.601562 403.632812 128.550781 403.582031 128.488281 403.578125 C 126.597656 403.464844 124.789062 404 123.65625 405.019531 C 123.074219 405.546875 122.726562 406.289062 122.703125 407.050781 C 122.6875 407.722656 122.933594 408.347656 123.394531 408.808594 Z M 125.125 410.761719 C 124.179688 410.761719 123.242188 410.402344 122.527344 409.683594 C 121.824219 408.976562 121.449219 408.03125 121.476562 407.019531 C 121.503906 405.917969 122 404.855469 122.835938 404.105469 C 124.226562 402.847656 126.316406 402.207031 128.5625 402.347656 C 129.242188 402.386719 129.789062 402.933594 129.832031 403.613281 C 129.980469 406.050781 129.207031 408.324219 127.765625 409.691406 C 127.011719 410.40625 126.0625 410.761719 125.125 410.761719"/><path fill="#FF914D" d="M 119.019531 409.023438 L 119.023438 409.023438 Z M 112.140625 401.011719 C 111.90625 401.011719 111.671875 401.019531 111.433594 401.035156 C 111.234375 401.046875 111.074219 401.207031 111.0625 401.402344 C 110.882812 404.3125 111.773438 406.992188 113.4375 408.574219 C 114.925781 409.984375 117.1875 409.988281 118.582031 408.585938 C 119.261719 407.910156 119.621094 406.992188 119.59375 406.011719 C 119.566406 404.90625 119.0625 403.835938 118.214844 403.070312 C 116.765625 401.757812 114.53125 401.011719 112.140625 401.011719 Z M 116.054688 410.871094 C 114.824219 410.871094 113.578125 410.40625 112.59375 409.472656 C 110.664062 407.640625 109.632812 404.597656 109.835938 401.328125 C 109.886719 400.507812 110.539062 399.855469 111.359375 399.800781 C 114.332031 399.617188 117.203125 400.5 119.035156 402.152344 C 120.136719 403.140625 120.785156 404.535156 120.824219 405.980469 C 120.859375 407.304688 120.371094 408.539062 119.453125 409.460938 C 118.515625 410.402344 117.289062 410.871094 116.054688 410.871094"/><g clip-path="url(#c)"><path fill="#FF914D" d="M 137.042969 397.792969 L 136.128906 398.296875 C 135.863281 398.441406 135.648438 398.65625 135.503906 398.921875 L 135.003906 399.839844 C 134.917969 400 134.769531 400.015625 134.707031 400.015625 C 134.648438 400.015625 134.5 400 134.414062 399.839844 L 133.910156 398.921875 C 133.765625 398.65625 133.550781 398.441406 133.289062 398.296875 L 132.371094 397.792969 C 132.214844 397.707031 132.195312 397.554688 132.195312 397.496094 C 132.195312 397.433594 132.214844 397.285156 132.371094 397.199219 L 133.289062 396.695312 C 133.550781 396.550781 133.765625 396.335938 133.910156 396.070312 L 134.414062 395.148438 C 134.5 394.992188 134.648438 394.976562 134.707031 394.976562 C 134.769531 394.976562 134.917969 394.992188 135.003906 395.148438 L 135.503906 396.070312 C 135.648438 396.335938 135.863281 396.550781 136.128906 396.695312 L 137.042969 397.199219 C 137.203125 397.285156 137.21875 397.433594 137.21875 397.496094 C 137.21875 397.554688 137.203125 397.707031 137.042969 397.792969 Z M 137.636719 396.117188 L 136.714844 395.613281 C 136.660156 395.582031 136.613281 395.535156 136.582031 395.480469 L 136.082031 394.558594 C 135.808594 394.054688 135.28125 393.742188 134.707031 393.742188 C 134.136719 393.742188 133.609375 394.054688 133.335938 394.558594 L 132.832031 395.480469 C 132.800781 395.535156 132.753906 395.582031 132.699219 395.613281 L 131.78125 396.117188 C 131.277344 396.390625 130.96875 396.921875 130.96875 397.496094 C 130.96875 398.070312 131.277344 398.597656 131.78125 398.875 L 132.699219 399.378906 C 132.753906 399.410156 132.800781 399.457031 132.832031 399.511719 L 133.335938 400.433594 C 133.609375 400.9375 134.136719 401.25 134.707031 401.25 C 135.28125 401.25 135.808594 400.9375 136.082031 400.433594 L 136.582031 399.511719 C 136.613281 399.457031 136.660156 399.410156 136.714844 399.378906 L 137.636719 398.875 C 138.136719 398.597656 138.449219 398.070312 138.449219 397.496094 C 138.449219 396.921875 138.136719 396.390625 137.636719 396.117188"/></g><path fill="#FF914D" d="M 125.597656 407.269531 L 125.539062 407.253906 C 125.601562 407.210938 125.664062 407.164062 125.730469 407.117188 C 126.015625 406.933594 126.089844 406.550781 125.902344 406.265625 C 125.714844 405.980469 125.335938 405.902344 125.050781 406.089844 C 124.625 406.375 124.234375 406.679688 123.867188 407.007812 C 123.84375 407.03125 123.714844 407.148438 123.699219 407.164062 C 122.414062 408.367188 121.542969 409.855469 121.050781 411.6875 C 120.402344 409.902344 119.390625 408.265625 118.234375 406.949219 C 118.199219 406.890625 117.890625 406.570312 117.785156 406.460938 L 118.003906 404.882812 C 118.050781 404.542969 117.816406 404.234375 117.480469 404.1875 C 117.144531 404.140625 116.832031 404.371094 116.785156 404.710938 L 116.683594 405.441406 C 116.40625 405.214844 116.121094 404.996094 115.839844 404.808594 C 115.554688 404.621094 115.175781 404.699219 114.988281 404.984375 C 114.800781 405.269531 114.878906 405.652344 115.160156 405.839844 C 115.570312 406.109375 115.984375 406.441406 116.386719 406.808594 L 115.433594 406.917969 C 115.09375 406.953125 114.851562 407.261719 114.890625 407.597656 C 114.925781 407.914062 115.191406 408.144531 115.5 408.144531 C 115.523438 408.144531 117.464844 407.929688 117.464844 407.929688 C 119.207031 409.972656 120.566406 412.8125 120.566406 415.742188 L 120.566406 417.085938 C 120.566406 417.425781 120.84375 417.703125 121.183594 417.703125 C 121.523438 417.703125 121.796875 417.425781 121.796875 417.085938 L 121.796875 415.742188 C 121.796875 412.414062 122.621094 409.984375 124.359375 408.234375 L 125.300781 408.46875 C 125.351562 408.480469 125.402344 408.488281 125.449219 408.488281 C 125.726562 408.488281 125.976562 408.296875 126.046875 408.015625 C 126.125 407.683594 125.925781 407.351562 125.597656 407.269531"/><path fill="#FF914D" d="M 103.859375 409.765625 C 103.832031 409.765625 103.820312 409.78125 103.816406 409.792969 L 103.460938 410.441406 C 103.34375 410.660156 103.167969 410.835938 102.949219 410.953125 L 102.304688 411.308594 C 102.292969 411.316406 102.273438 411.324219 102.273438 411.359375 C 102.273438 411.390625 102.292969 411.402344 102.304688 411.40625 L 102.949219 411.761719 C 103.167969 411.878906 103.34375 412.058594 103.460938 412.273438 L 103.8125 412.921875 C 103.824219 412.941406 103.898438 412.941406 103.910156 412.921875 L 104.261719 412.273438 C 104.382812 412.054688 104.558594 411.878906 104.773438 411.761719 L 105.421875 411.40625 C 105.429688 411.398438 105.449219 411.390625 105.449219 411.359375 C 105.449219 411.324219 105.429688 411.316406 105.421875 411.308594 L 104.773438 410.953125 C 104.558594 410.835938 104.382812 410.660156 104.265625 410.445312 L 103.910156 409.792969 C 103.902344 409.78125 103.894531 409.765625 103.859375 409.765625 Z M 103.859375 414.183594 C 103.390625 414.183594 102.960938 413.925781 102.734375 413.515625 L 102.382812 412.867188 L 101.710938 412.488281 C 101.300781 412.261719 101.042969 411.828125 101.042969 411.359375 C 101.042969 410.886719 101.300781 410.453125 101.710938 410.226562 L 102.359375 409.871094 L 102.734375 409.203125 C 102.960938 408.789062 103.390625 408.53125 103.859375 408.53125 C 104.332031 408.53125 104.765625 408.789062 104.988281 409.203125 L 105.34375 409.851562 L 106.007812 410.226562 C 106.421875 410.453125 106.679688 410.886719 106.679688 411.359375 C 106.679688 411.828125 106.421875 412.261719 106.007812 412.488281 L 105.363281 412.84375 L 104.988281 413.515625 C 104.765625 413.925781 104.332031 414.183594 103.859375 414.183594"/></svg>