<svg xmlns="http://www.w3.org/2000/svg" width="1050" viewBox="0 0 1050 1050" height="1050" version="1.0"><defs><clipPath id="a"><path d="M 488.972656 142.554688 L 1025.972656 142.554688 L 1025.972656 679.554688 L 488.972656 679.554688 Z M 488.972656 142.554688"/></clipPath><clipPath id="b"><path d="M 173.265625 728 L 248.082031 728 L 248.082031 778.375 L 173.265625 778.375 Z M 173.265625 728"/></clipPath></defs><g clip-path="url(#a)"><path fill="#FFF" d="M 757.472656 142.554688 C 609.195312 142.554688 488.972656 262.777344 488.972656 411.054688 C 488.972656 530.539062 567.085938 631.695312 674.976562 666.511719 C 665.378906 594.84375 670.949219 510.402344 700.261719 443.609375 C 732.433594 370.242188 818.019531 328.671875 818.019531 328.671875 C 818.019531 328.671875 722.613281 346.792969 675.042969 426.089844 C 649.804688 468.132812 635.796875 542.441406 635.796875 542.441406 C 635.796875 542.441406 545.851562 421.011719 653.789062 319.160156 C 725.878906 251.097656 876.574219 264.878906 918.707031 289.179688 C 862.902344 377.714844 895.886719 470.125 835.269531 525.75 C 768.546875 586.96875 694.734375 576.539062 694.734375 576.539062 C 694.734375 576.539062 693.011719 618.246094 711.984375 675.394531 C 726.773438 677.945312 741.921875 679.554688 757.472656 679.554688 C 905.753906 679.554688 1025.972656 559.335938 1025.972656 411.054688 C 1025.972656 262.777344 905.753906 142.554688 757.472656 142.554688 Z M 757.472656 142.554688"/></g><g fill="#FF914D"><g><g><path d="M 232.859375 -478.53125 L 22.78125 -478.53125 L 22.78125 -467.140625 L 85.453125 -467.140625 L 85.453125 -11.390625 L 22.78125 -11.390625 L 22.78125 0 L 232.859375 0 C 266.085938 0 296.46875 -5.8125 324 -17.4375 C 351.53125 -29.070312 375.03125 -45.570312 394.5 -66.9375 C 413.96875 -88.300781 429.039062 -114.054688 439.71875 -144.203125 C 450.394531 -174.347656 455.734375 -207.929688 455.734375 -244.953125 C 455.734375 -279.609375 450.273438 -311.296875 439.359375 -340.015625 C 428.441406 -368.742188 413.128906 -393.429688 393.421875 -414.078125 C 373.722656 -434.734375 350.222656 -450.640625 322.921875 -461.796875 C 295.628906 -472.953125 265.609375 -478.53125 232.859375 -478.53125 Z M 377.40625 -262.765625 L 377.40625 -227.15625 C 377.40625 -184.90625 373.488281 -149.894531 365.65625 -122.125 C 357.820312 -94.351562 347.257812 -72.273438 333.96875 -55.890625 C 320.675781 -39.515625 305.25 -28.003906 287.6875 -21.359375 C 270.125 -14.710938 251.375 -11.390625 231.4375 -11.390625 L 154.53125 -11.390625 L 154.53125 -467.140625 L 231.4375 -467.140625 C 250.894531 -467.140625 269.40625 -463.695312 286.96875 -456.8125 C 304.539062 -449.925781 320.085938 -438.53125 333.609375 -422.625 C 347.140625 -406.71875 357.820312 -385.707031 365.65625 -359.59375 C 373.488281 -333.488281 377.40625 -301.210938 377.40625 -262.765625 Z M 377.40625 -262.765625" transform="translate(16.794 646.853)"/></g></g></g><g fill="#FFF"><g><g><path d="M 59.390625 -152.1875 L 77.015625 -152.1875 L 77.015625 -81.65625 C 71.296875 -90.007812 62.867188 -94.1875 51.734375 -94.1875 C 46.160156 -94.1875 40.742188 -92.789062 35.484375 -90 C 30.234375 -87.21875 25.597656 -83.546875 21.578125 -78.984375 C 17.554688 -74.421875 14.304688 -69.238281 11.828125 -63.4375 C 9.359375 -57.644531 8.125 -51.734375 8.125 -45.703125 C 8.125 -39.203125 9.472656 -32.972656 12.171875 -27.015625 C 14.878906 -21.066406 18.320312 -15.847656 22.5 -11.359375 C 26.675781 -6.878906 31.316406 -3.320312 36.421875 -0.6875 C 41.523438 1.9375 46.394531 3.25 51.03125 3.25 C 57.21875 3.25 62.398438 1.703125 66.578125 -1.390625 C 70.753906 -4.484375 74.234375 -8.039062 77.015625 -12.0625 L 77.015625 0 L 114.59375 0 L 114.59375 -3.71875 L 96.96875 -3.71875 L 96.96875 -155.890625 L 59.390625 -155.890625 Z M 32.25 -51.5 C 32.25 -65.882812 33.796875 -75.972656 36.890625 -81.765625 C 39.984375 -87.566406 45.238281 -90.46875 52.65625 -90.46875 C 55.90625 -90.46875 58.804688 -89.925781 61.359375 -88.84375 C 63.910156 -87.757812 66.148438 -86.328125 68.078125 -84.546875 C 70.015625 -82.773438 71.71875 -80.882812 73.1875 -78.875 C 74.65625 -76.863281 75.929688 -74.929688 77.015625 -73.078125 L 77.015625 -18.796875 C 73.617188 -13.066406 69.867188 -8.578125 65.765625 -5.328125 C 61.671875 -2.085938 57.070312 -0.46875 51.96875 -0.46875 C 48.71875 -0.46875 45.851562 -1.125 43.375 -2.4375 C 40.90625 -3.75 38.859375 -5.910156 37.234375 -8.921875 C 35.609375 -11.941406 34.367188 -16.003906 33.515625 -21.109375 C 32.671875 -26.210938 32.25 -32.554688 32.25 -40.140625 Z M 32.25 -51.5" transform="translate(16.018 833.364)"/></g></g></g><g fill="#FFF"><g><g><path d="M 86.96875 -41.03125 C 86.96875 -32.269531 86.5 -25.269531 85.5625 -20.03125 C 84.625 -14.800781 83.253906 -10.78125 81.453125 -7.96875 C 79.660156 -5.15625 77.515625 -3.28125 75.015625 -2.34375 C 72.515625 -1.40625 69.703125 -0.9375 66.578125 -0.9375 C 63.296875 -0.9375 60.171875 -1.597656 57.203125 -2.921875 C 54.234375 -4.253906 51.578125 -5.972656 49.234375 -8.078125 C 46.890625 -10.191406 45.015625 -12.5 43.609375 -15 C 42.203125 -17.5 41.5 -19.921875 41.5 -22.265625 L 41.5 -67.75 C 41.5 -70.5625 42.28125 -73.375 43.84375 -76.1875 C 45.40625 -79 47.4375 -81.535156 49.9375 -83.796875 C 52.4375 -86.066406 55.207031 -87.90625 58.25 -89.3125 C 61.300781 -90.71875 64.3125 -91.421875 67.28125 -91.421875 C 69.78125 -91.421875 72.203125 -90.988281 74.546875 -90.125 C 76.890625 -89.269531 79 -87.472656 80.875 -84.734375 C 82.75 -82.003906 84.234375 -78.019531 85.328125 -72.78125 C 86.421875 -67.550781 86.96875 -60.5625 86.96875 -51.8125 Z M 41.5 -79.9375 L 41.5 -91.890625 L 6.09375 -91.890625 L 6.09375 -88.140625 L 21.328125 -88.140625 L 21.328125 59.078125 L 6.09375 59.078125 L 6.09375 62.828125 L 56.734375 62.828125 L 56.734375 59.078125 L 41.5 59.078125 L 41.5 -10.078125 C 44.15625 -6.171875 47.59375 -2.96875 51.8125 -0.46875 C 56.03125 2.03125 61.109375 3.28125 67.046875 3.28125 C 72.671875 3.28125 78.140625 1.953125 83.453125 -0.703125 C 88.765625 -3.359375 93.488281 -6.910156 97.625 -11.359375 C 101.769531 -15.816406 105.09375 -21.050781 107.59375 -27.0625 C 110.09375 -33.082031 111.34375 -39.457031 111.34375 -46.1875 C 111.34375 -52.90625 110.050781 -59.234375 107.46875 -65.171875 C 104.894531 -71.109375 101.5 -76.300781 97.28125 -80.75 C 93.0625 -85.207031 88.332031 -88.722656 83.09375 -91.296875 C 77.863281 -93.878906 72.671875 -95.171875 67.515625 -95.171875 C 60.953125 -95.171875 55.597656 -93.53125 51.453125 -90.25 C 47.316406 -86.96875 44 -83.53125 41.5 -79.9375 Z M 41.5 -79.9375" transform="translate(354.031 773.136)"/></g></g></g><g fill="#FFF"><g><g><path d="M 44.3125 -3.71875 L 44.3125 -155.890625 L 8.125 -155.890625 L 8.125 -152.1875 L 24.359375 -152.1875 L 24.359375 -3.71875 L 8.125 -3.71875 L 8.125 0 L 60.546875 0 L 60.546875 -3.71875 Z M 44.3125 -3.71875" transform="translate(296.93 833.364)"/></g></g></g><g fill="#FFF"><g><g><path d="M 45.796875 -152.109375 C 37.296875 -146.523438 33.046875 -139.882812 33.046875 -132.1875 C 33.046875 -128.476562 34.304688 -125.09375 36.828125 -122.03125 C 39.347656 -118.976562 42.863281 -117.453125 47.375 -117.453125 C 51.894531 -117.453125 55.546875 -118.78125 58.328125 -121.4375 C 61.117188 -124.09375 62.515625 -127.410156 62.515625 -131.390625 C 62.515625 -133.253906 62.179688 -135.179688 61.515625 -137.171875 C 60.847656 -139.160156 59.585938 -141.082031 57.734375 -142.9375 C 56.410156 -144.269531 55.347656 -145.203125 54.546875 -145.734375 C 53.753906 -146.265625 53.359375 -146.925781 53.359375 -147.71875 C 53.359375 -148.78125 54.15625 -149.84375 55.75 -150.90625 C 57.34375 -151.96875 59.332031 -152.894531 61.71875 -153.6875 C 64.101562 -154.488281 66.820312 -155.15625 69.875 -155.6875 C 72.925781 -156.21875 75.914062 -156.484375 78.84375 -156.484375 C 87.070312 -156.484375 93.570312 -154.890625 98.34375 -151.703125 C 103.125 -148.515625 105.515625 -142.410156 105.515625 -133.390625 L 105.515625 -86.40625 C 93.304688 -86.40625 81.890625 -85.144531 71.265625 -82.625 C 60.648438 -80.101562 51.359375 -76.453125 43.390625 -71.671875 C 35.429688 -66.890625 29.195312 -60.984375 24.6875 -53.953125 C 20.175781 -46.921875 17.921875 -39.023438 17.921875 -30.265625 C 17.921875 -23.890625 19.046875 -18.378906 21.296875 -13.734375 C 23.554688 -9.085938 26.675781 -5.367188 30.65625 -2.578125 C 34.632812 0.203125 39.210938 2.253906 44.390625 3.578125 C 49.566406 4.910156 55.078125 5.578125 60.921875 5.578125 C 67.023438 5.578125 72.53125 4.84375 77.4375 3.375 C 82.351562 1.914062 86.734375 0.0625 90.578125 -2.1875 C 94.429688 -4.445312 97.6875 -6.835938 100.34375 -9.359375 C 103 -11.878906 105.117188 -14.332031 106.703125 -16.71875 C 107.503906 -11.144531 110.023438 -6.035156 114.265625 -1.390625 C 118.515625 3.253906 125.953125 5.578125 136.578125 5.578125 C 143.472656 5.578125 149.242188 4.515625 153.890625 2.390625 C 158.535156 0.265625 162.316406 -2.253906 165.234375 -5.171875 C 168.160156 -8.097656 170.21875 -11.085938 171.40625 -14.140625 C 172.601562 -17.191406 173.203125 -19.515625 173.203125 -21.109375 C 173.203125 -22.429688 172.804688 -23.09375 172.015625 -23.09375 C 171.210938 -23.09375 170.28125 -22.03125 169.21875 -19.90625 C 167.09375 -15.394531 164.4375 -11.742188 161.25 -8.953125 C 158.070312 -6.171875 154.625 -4.78125 150.90625 -4.78125 C 145.59375 -4.78125 142.40625 -6.96875 141.34375 -11.34375 C 140.289062 -15.726562 139.765625 -21.769531 139.765625 -29.46875 L 139.765625 -125.828125 C 139.765625 -137.234375 135.515625 -146.054688 127.015625 -152.296875 C 118.523438 -158.535156 105.519531 -161.65625 88 -161.65625 C 79.769531 -161.65625 71.867188 -160.789062 64.296875 -159.0625 C 56.734375 -157.34375 50.566406 -155.023438 45.796875 -152.109375 Z M 105.515625 -82.421875 L 105.515625 -27.078125 C 105.515625 -24.679688 104.382812 -22.15625 102.125 -19.5 C 99.875 -16.851562 97.085938 -14.398438 93.765625 -12.140625 C 90.453125 -9.890625 87.003906 -8.097656 83.421875 -6.765625 C 79.835938 -5.441406 76.847656 -4.78125 74.453125 -4.78125 C 66.222656 -4.78125 59.984375 -7.960938 55.734375 -14.328125 C 51.492188 -20.703125 49.375 -29.332031 49.375 -40.21875 C 49.375 -48.976562 50.960938 -56.007812 54.140625 -61.3125 C 57.328125 -66.625 61.507812 -70.738281 66.6875 -73.65625 C 71.863281 -76.582031 77.835938 -78.640625 84.609375 -79.828125 C 91.378906 -81.023438 98.347656 -81.890625 105.515625 -82.421875 Z M 105.515625 -82.421875" transform="translate(444.867 839.816)"/></g></g></g><g fill="#FF914D"><g><g><path d="M 71.3125 -117.359375 L 71.3125 -145.59375 L 13.375 -145.59375 L 13.375 -139.65625 L 39.375 -139.65625 L 39.375 -5.9375 L 13.375 -5.9375 L 13.375 0 L 97.3125 0 L 97.3125 -5.9375 L 71.3125 -5.9375 L 71.3125 -98.046875 C 71.3125 -102.253906 72.425781 -106.769531 74.65625 -111.59375 C 76.882812 -116.425781 79.789062 -120.945312 83.375 -125.15625 C 86.96875 -129.375 91.054688 -132.84375 95.640625 -135.5625 C 100.222656 -138.289062 104.988281 -139.65625 109.9375 -139.65625 C 117.113281 -139.65625 122.375 -137.425781 125.71875 -132.96875 C 129.0625 -128.507812 130.734375 -121.453125 130.734375 -111.796875 L 130.734375 -5.9375 L 104.734375 -5.9375 L 104.734375 0 L 188.671875 0 L 188.671875 -5.9375 L 162.671875 -5.9375 L 162.671875 -114.390625 C 162.671875 -127.265625 159.019531 -136.175781 151.71875 -141.125 C 144.414062 -146.082031 135.066406 -148.5625 123.671875 -148.5625 C 110.054688 -148.5625 98.976562 -145.46875 90.4375 -139.28125 C 81.894531 -133.09375 75.519531 -125.785156 71.3125 -117.359375 Z M 71.3125 -117.359375" transform="translate(611.748 835.48)"/></g></g></g><g fill="#FF914D"><g><g><path d="M 76.5625 -152.34375 L 13.984375 -152.34375 L 13.984375 -146.125 L 43.140625 -146.125 L 43.140625 -6.21875 L 13.984375 -6.21875 L 13.984375 0 L 105.703125 0 L 105.703125 -6.21875 L 76.5625 -6.21875 Z M 79.671875 -224.25 C 79.671875 -229.945312 77.726562 -234.738281 73.84375 -238.625 C 69.957031 -242.507812 65.164062 -244.453125 59.46875 -244.453125 C 53.757812 -244.453125 48.960938 -242.507812 45.078125 -238.625 C 41.191406 -234.738281 39.25 -229.945312 39.25 -224.25 C 39.25 -218.550781 41.191406 -213.753906 45.078125 -209.859375 C 48.960938 -205.972656 53.757812 -204.03125 59.46875 -204.03125 C 65.164062 -204.03125 69.957031 -205.972656 73.84375 -209.859375 C 77.726562 -213.753906 79.671875 -218.550781 79.671875 -224.25 Z M 79.671875 -224.25" transform="translate(796.13 832.438)"/></g></g></g><g fill="#FF914D"><g><g><path d="M 52.640625 -66.46875 L 52.640625 -83.375 C 52.640625 -95.925781 53.40625 -106.425781 54.9375 -114.875 C 56.476562 -123.332031 58.847656 -130.1875 62.046875 -135.4375 C 65.242188 -140.6875 69.273438 -144.398438 74.140625 -146.578125 C 79.015625 -148.753906 84.78125 -149.84375 91.4375 -149.84375 C 100.914062 -149.84375 107.382812 -148.625 110.84375 -146.1875 C 114.300781 -143.757812 116.03125 -142.03125 116.03125 -141 C 116.03125 -139.976562 115.644531 -139.082031 114.875 -138.3125 C 113.082031 -136.257812 111.738281 -134.144531 110.84375 -131.96875 C 109.945312 -129.789062 109.5 -127.039062 109.5 -123.71875 C 109.5 -118.59375 111.160156 -114.6875 114.484375 -112 C 117.816406 -109.3125 121.660156 -107.96875 126.015625 -107.96875 C 131.140625 -107.96875 135.238281 -109.503906 138.3125 -112.578125 C 141.382812 -115.648438 142.921875 -119.617188 142.921875 -124.484375 C 142.921875 -129.347656 141.253906 -133.765625 137.921875 -137.734375 C 134.597656 -141.703125 130.4375 -145.03125 125.4375 -147.71875 C 120.445312 -150.414062 115.003906 -152.46875 109.109375 -153.875 C 103.222656 -155.28125 97.585938 -155.984375 92.203125 -155.984375 C 82.210938 -155.984375 72.476562 -154 63 -150.03125 C 53.53125 -146.0625 45.082031 -140.550781 37.65625 -133.5 C 30.226562 -126.457031 24.207031 -117.941406 19.59375 -107.953125 C 14.976562 -97.972656 12.671875 -86.960938 12.671875 -74.921875 C 12.671875 -62.628906 14.910156 -51.550781 19.390625 -41.6875 C 23.878906 -31.820312 29.773438 -23.367188 37.078125 -16.328125 C 44.378906 -9.285156 52.703125 -3.90625 62.046875 -0.1875 C 71.398438 3.519531 80.8125 5.375 90.28125 5.375 C 99.757812 5.375 108.082031 3.898438 115.25 0.953125 C 122.425781 -1.984375 128.445312 -5.691406 133.3125 -10.171875 C 138.1875 -14.660156 142.03125 -19.398438 144.84375 -24.390625 C 147.664062 -29.390625 149.710938 -33.9375 150.984375 -38.03125 C 151.503906 -39.570312 151.765625 -40.597656 151.765625 -41.109375 C 151.765625 -43.410156 150.738281 -44.5625 148.6875 -44.5625 C 147.144531 -44.5625 145.992188 -43.28125 145.234375 -40.71875 C 143.691406 -35.851562 141.382812 -31.050781 138.3125 -26.3125 C 135.238281 -21.570312 131.457031 -17.28125 126.96875 -13.4375 C 122.488281 -9.601562 117.238281 -6.53125 111.21875 -4.21875 C 105.207031 -1.914062 98.613281 -0.765625 91.4375 -0.765625 C 83.5 -0.765625 77.03125 -1.914062 72.03125 -4.21875 C 67.039062 -6.53125 63.070312 -10.3125 60.125 -15.5625 C 57.175781 -20.8125 55.191406 -27.597656 54.171875 -35.921875 C 53.148438 -44.242188 52.640625 -54.425781 52.640625 -66.46875 Z M 52.640625 -66.46875" transform="translate(873.533 826.8)"/></g></g></g><g fill="#FFF"><g><g><path d="M 97.171875 6 C 110.015625 6 121.644531 3.070312 132.0625 -2.78125 C 142.476562 -8.632812 151.328125 -15.984375 158.609375 -24.828125 C 165.890625 -33.671875 171.523438 -43.375 175.515625 -53.9375 C 179.515625 -64.5 181.515625 -74.488281 181.515625 -83.90625 C 181.515625 -93.320312 179.515625 -103.3125 175.515625 -113.875 C 171.523438 -124.4375 165.890625 -134.140625 158.609375 -142.984375 C 151.328125 -151.828125 142.476562 -159.175781 132.0625 -165.03125 C 121.644531 -170.882812 110.015625 -173.8125 97.171875 -173.8125 C 84.328125 -173.8125 72.695312 -170.882812 62.28125 -165.03125 C 51.863281 -159.175781 42.945312 -151.828125 35.53125 -142.984375 C 28.113281 -134.140625 22.40625 -124.4375 18.40625 -113.875 C 14.414062 -103.3125 12.421875 -93.320312 12.421875 -83.90625 C 12.421875 -74.488281 14.414062 -64.5 18.40625 -53.9375 C 22.40625 -43.375 28.113281 -33.671875 35.53125 -24.828125 C 42.945312 -15.984375 51.863281 -8.632812 62.28125 -2.78125 C 72.695312 3.070312 84.328125 6 97.171875 6 Z M 56.9375 -93.328125 C 56.9375 -105.304688 57.4375 -115.863281 58.4375 -125 C 59.4375 -134.132812 61.363281 -141.835938 64.21875 -148.109375 C 67.070312 -154.390625 71.132812 -159.097656 76.40625 -162.234375 C 81.6875 -165.378906 88.609375 -166.953125 97.171875 -166.953125 C 105.734375 -166.953125 112.65625 -165.378906 117.9375 -162.234375 C 123.21875 -159.097656 127.210938 -154.390625 129.921875 -148.109375 C 132.640625 -141.835938 134.492188 -134.132812 135.484375 -125 C 136.484375 -115.863281 136.984375 -105.304688 136.984375 -93.328125 L 136.984375 -74.921875 C 136.984375 -62.078125 136.484375 -51.015625 135.484375 -41.734375 C 134.492188 -32.460938 132.640625 -24.828125 129.921875 -18.828125 C 127.210938 -12.835938 123.21875 -8.34375 117.9375 -5.34375 C 112.65625 -2.351562 105.734375 -0.859375 97.171875 -0.859375 C 88.609375 -0.859375 81.6875 -2.351562 76.40625 -5.34375 C 71.132812 -8.34375 67.070312 -12.835938 64.21875 -18.828125 C 61.363281 -24.828125 59.4375 -32.460938 58.4375 -41.734375 C 57.4375 -51.015625 56.9375 -62.078125 56.9375 -74.921875 Z M 56.9375 -93.328125" transform="translate(115.035 831.913)"/></g></g></g><g clip-path="url(#b)"><path fill="#FF914D" d="M 245.414062 763.382812 C 242.242188 766.089844 220.273438 771.15625 213.617188 771.15625 C 213.597656 771.15625 213.570312 771.15625 213.546875 771.15625 C 212.238281 771.148438 210.515625 770.972656 208.523438 770.765625 C 203.816406 770.28125 197.964844 769.675781 193.792969 771.011719 C 191.433594 771.765625 189.15625 773.492188 187.496094 774.746094 C 186.894531 775.199219 186.378906 775.59375 186.027344 775.804688 C 185.527344 776.109375 185.121094 776.226562 184.425781 775.976562 C 182.449219 775.269531 175.671875 768.203125 175.515625 766.289062 C 175.476562 765.792969 175.601562 765.503906 175.847656 765.140625 C 178.585938 761.117188 189.574219 754.132812 193.210938 752.535156 C 196.65625 751.019531 201.5 749.277344 207.550781 749.277344 C 209.882812 749.277344 212.398438 749.535156 215.074219 750.167969 C 219.761719 751.265625 226.949219 753.460938 228.851562 754.535156 C 230.042969 755.207031 230.617188 756.308594 230.390625 757.476562 C 230.222656 758.332031 229.550781 759.3125 228.167969 759.484375 C 226.605469 759.679688 224.6875 759.34375 222.648438 758.988281 C 219.277344 758.402344 215.453125 757.730469 212.21875 759.417969 C 211.695312 759.695312 211.488281 760.347656 211.761719 760.875 C 212.039062 761.402344 212.683594 761.609375 213.214844 761.332031 C 215.800781 759.984375 219.097656 760.5625 222.28125 761.117188 C 223.996094 761.417969 225.632812 761.707031 227.164062 761.707031 C 227.582031 761.707031 228.660156 761.605469 228.773438 761.59375 C 230.25 761.425781 231.925781 761.042969 233.6875 760.640625 C 237.792969 759.695312 242.445312 758.632812 244.847656 760.359375 C 245.453125 760.792969 245.851562 761.503906 245.878906 762.207031 C 245.894531 762.546875 245.824219 763.03125 245.414062 763.382812 Z M 189.148438 739.660156 C 189.148438 738.652344 189.964844 737.835938 190.96875 737.835938 L 234.773438 737.835938 C 235.78125 737.835938 236.59375 738.652344 236.59375 739.660156 L 236.59375 757.800781 C 235.453125 758.019531 234.3125 758.28125 233.210938 758.53125 C 232.886719 758.609375 232.566406 758.683594 232.25 758.753906 C 232.359375 758.480469 232.441406 758.191406 232.5 757.890625 C 232.914062 755.796875 231.917969 753.792969 229.910156 752.65625 C 227.652344 751.375 219.90625 749.082031 215.566406 748.0625 C 205.308594 745.65625 197.402344 748.332031 192.34375 750.554688 C 191.550781 750.90625 190.4375 751.492188 189.148438 752.230469 Z M 192.261719 732.082031 C 192.261719 731.476562 192.753906 730.980469 193.359375 730.980469 L 232.386719 730.980469 C 232.988281 730.980469 233.480469 731.476562 233.480469 732.082031 L 233.480469 735.675781 L 192.261719 735.675781 Z M 246.097656 758.601562 C 244.175781 757.21875 241.535156 757.101562 238.746094 757.457031 L 238.746094 739.660156 C 238.746094 737.757812 237.414062 736.167969 235.632812 735.769531 L 235.632812 732.082031 C 235.632812 730.285156 234.175781 728.820312 232.386719 728.820312 L 193.359375 728.820312 C 191.566406 728.820312 190.109375 730.285156 190.109375 732.082031 L 190.109375 735.769531 C 188.332031 736.167969 186.996094 737.757812 186.996094 739.660156 L 186.996094 753.519531 C 182.160156 756.515625 176.128906 760.898438 174.070312 763.925781 C 173.691406 764.476562 173.273438 765.269531 173.371094 766.464844 C 173.613281 769.445312 181.164062 777.101562 183.703125 778.011719 C 184.21875 778.195312 184.683594 778.269531 185.105469 778.269531 C 185.988281 778.269531 186.660156 777.945312 187.140625 777.652344 C 187.582031 777.386719 188.144531 776.960938 188.792969 776.472656 C 190.332031 775.308594 192.433594 773.714844 194.445312 773.070312 C 198.191406 771.871094 203.796875 772.449219 208.300781 772.914062 C 210.355469 773.125 212.125 773.308594 213.539062 773.316406 C 213.5625 773.316406 213.585938 773.316406 213.609375 773.316406 C 220.308594 773.316406 243.011719 768.269531 246.808594 765.027344 C 247.644531 764.3125 248.082031 763.277344 248.03125 762.117188 C 247.972656 760.742188 247.25 759.425781 246.097656 758.601562"/></g><path fill="#FF914D" d="M 215.941406 715.417969 C 217.617188 717.09375 220.328125 717.082031 222.109375 715.390625 C 224.179688 713.429688 225.28125 710.089844 225.054688 706.460938 C 225.050781 706.355469 224.960938 706.269531 224.855469 706.261719 C 221.542969 706.058594 218.382812 707.003906 216.402344 708.785156 C 215.378906 709.710938 214.769531 711.003906 214.734375 712.335938 C 214.703125 713.511719 215.132812 714.605469 215.941406 715.417969 Z M 218.96875 718.832031 C 217.3125 718.832031 215.675781 718.203125 214.417969 716.941406 C 213.191406 715.710938 212.535156 714.054688 212.585938 712.28125 C 212.636719 710.355469 213.5 708.5 214.964844 707.183594 C 217.398438 704.984375 221.050781 703.863281 224.984375 704.105469 C 226.175781 704.179688 227.128906 705.136719 227.207031 706.324219 C 227.464844 710.585938 226.117188 714.5625 223.589844 716.960938 C 222.273438 718.207031 220.613281 718.832031 218.96875 718.832031"/><path fill="#FF914D" d="M 208.285156 715.792969 L 208.289062 715.792969 Z M 196.25 701.773438 C 195.835938 701.773438 195.425781 701.785156 195.007812 701.8125 C 194.660156 701.832031 194.378906 702.109375 194.359375 702.453125 C 194.046875 707.546875 195.601562 712.234375 198.519531 715.003906 C 201.117188 717.46875 205.074219 717.480469 207.519531 715.027344 C 208.707031 713.839844 209.335938 712.238281 209.289062 710.519531 C 209.238281 708.585938 208.359375 706.710938 206.875 705.371094 C 204.339844 703.078125 200.433594 701.773438 196.25 701.773438 Z M 203.097656 719.023438 C 200.9375 719.023438 198.765625 718.207031 197.042969 716.574219 C 193.664062 713.367188 191.859375 708.042969 192.210938 702.324219 C 192.300781 700.886719 193.445312 699.742188 194.875 699.652344 C 200.082031 699.332031 205.105469 700.871094 208.3125 703.765625 C 210.238281 705.496094 211.375 707.9375 211.441406 710.464844 C 211.503906 712.78125 210.652344 714.945312 209.042969 716.558594 C 207.402344 718.203125 205.257812 719.023438 203.097656 719.023438"/><path fill="#FF914D" d="M 239.828125 696.136719 L 238.222656 697.015625 C 237.761719 697.269531 237.386719 697.644531 237.132812 698.109375 L 236.257812 699.722656 C 236.105469 699.996094 235.84375 700.027344 235.738281 700.027344 C 235.632812 700.027344 235.375 699.996094 235.226562 699.722656 L 234.34375 698.109375 C 234.09375 697.644531 233.71875 697.269531 233.253906 697.015625 L 231.648438 696.136719 C 231.375 695.984375 231.34375 695.722656 231.34375 695.617188 C 231.34375 695.511719 231.375 695.25 231.648438 695.097656 L 233.253906 694.21875 C 233.71875 693.964844 234.09375 693.589844 234.34375 693.125 L 235.226562 691.511719 C 235.375 691.234375 235.632812 691.207031 235.738281 691.207031 C 235.84375 691.207031 236.105469 691.234375 236.257812 691.511719 L 237.132812 693.125 C 237.386719 693.589844 237.761719 693.964844 238.222656 694.21875 L 239.828125 695.097656 C 240.101562 695.25 240.132812 695.511719 240.132812 695.617188 C 240.132812 695.722656 240.101562 695.984375 239.828125 696.136719 Z M 240.863281 693.207031 L 239.253906 692.324219 C 239.15625 692.269531 239.074219 692.1875 239.023438 692.089844 L 238.140625 690.476562 C 237.664062 689.59375 236.742188 689.046875 235.738281 689.046875 C 234.738281 689.046875 233.816406 689.59375 233.335938 690.476562 L 232.457031 692.089844 C 232.402344 692.1875 232.320312 692.269531 232.222656 692.324219 L 230.617188 693.207031 C 229.738281 693.6875 229.191406 694.613281 229.191406 695.617188 C 229.191406 696.621094 229.738281 697.546875 230.617188 698.03125 L 232.222656 698.910156 C 232.320312 698.964844 232.402344 699.046875 232.457031 699.144531 L 233.335938 700.757812 C 233.816406 701.640625 234.738281 702.1875 235.738281 702.1875 C 236.742188 702.1875 237.664062 701.640625 238.140625 700.757812 L 239.023438 699.144531 C 239.074219 699.046875 239.15625 698.964844 239.253906 698.910156 L 240.863281 698.03125 C 241.738281 697.546875 242.285156 696.621094 242.285156 695.617188 C 242.285156 694.613281 241.738281 693.6875 240.863281 693.207031"/><path fill="#FF914D" d="M 219.792969 712.722656 L 219.691406 712.695312 C 219.804688 712.617188 219.910156 712.535156 220.03125 712.457031 C 220.527344 712.132812 220.660156 711.460938 220.332031 710.964844 C 220.003906 710.46875 219.335938 710.328125 218.839844 710.65625 C 218.09375 711.152344 217.410156 711.691406 216.769531 712.261719 C 216.726562 712.304688 216.5 712.511719 216.476562 712.535156 C 214.226562 714.640625 212.699219 717.246094 211.835938 720.453125 C 210.703125 717.324219 208.933594 714.464844 206.914062 712.164062 C 206.847656 712.058594 206.308594 711.496094 206.125 711.304688 L 206.507812 708.542969 C 206.589844 707.953125 206.179688 707.40625 205.589844 707.324219 C 205.003906 707.242188 204.457031 707.652344 204.378906 708.242188 L 204.199219 709.523438 C 203.707031 709.121094 203.214844 708.746094 202.71875 708.417969 C 202.222656 708.085938 201.554688 708.226562 201.226562 708.71875 C 200.898438 709.21875 201.039062 709.890625 201.535156 710.214844 C 202.25 710.695312 202.972656 711.269531 203.675781 711.914062 L 202.007812 712.105469 C 201.414062 712.171875 200.988281 712.707031 201.058594 713.296875 C 201.117188 713.851562 201.582031 714.253906 202.125 714.253906 C 202.164062 714.253906 205.5625 713.875 205.5625 713.875 C 208.613281 717.453125 210.992188 722.421875 210.992188 727.546875 L 210.992188 729.902344 C 210.992188 730.5 211.476562 730.980469 212.070312 730.980469 C 212.664062 730.980469 213.144531 730.5 213.144531 729.902344 L 213.144531 727.546875 C 213.144531 721.726562 214.585938 717.476562 217.632812 714.414062 L 219.277344 714.820312 C 219.367188 714.839844 219.453125 714.851562 219.535156 714.851562 C 220.019531 714.851562 220.460938 714.523438 220.582031 714.03125 C 220.722656 713.449219 220.371094 712.863281 219.792969 712.722656"/><path fill="#FF914D" d="M 181.757812 717.089844 C 181.703125 717.089844 181.683594 717.121094 181.675781 717.136719 L 181.054688 718.273438 C 180.847656 718.652344 180.539062 718.960938 180.164062 719.171875 L 179.03125 719.792969 C 179.011719 719.800781 178.980469 719.820312 178.980469 719.875 C 178.980469 719.933594 179.011719 719.953125 179.03125 719.960938 L 180.164062 720.582031 C 180.539062 720.789062 180.847656 721.101562 181.054688 721.480469 L 181.671875 722.613281 C 181.695312 722.648438 181.824219 722.648438 181.839844 722.617188 L 182.460938 721.480469 C 182.667969 721.097656 182.976562 720.789062 183.355469 720.582031 L 184.484375 719.960938 C 184.503906 719.949219 184.535156 719.933594 184.535156 719.875 C 184.535156 719.820312 184.503906 719.800781 184.484375 719.792969 L 183.355469 719.171875 C 182.976562 718.960938 182.667969 718.652344 182.464844 718.277344 L 181.839844 717.136719 C 181.832031 717.121094 181.816406 717.089844 181.757812 717.089844 Z M 181.757812 724.824219 C 180.9375 724.824219 180.183594 724.375 179.785156 723.652344 L 179.167969 722.515625 L 177.996094 721.855469 C 177.277344 721.460938 176.828125 720.699219 176.828125 719.875 C 176.828125 719.050781 177.277344 718.292969 177.996094 717.898438 L 179.128906 717.273438 L 179.785156 716.101562 C 180.183594 715.378906 180.9375 714.929688 181.757812 714.929688 C 182.582031 714.929688 183.335938 715.378906 183.730469 716.101562 L 184.347656 717.238281 L 185.515625 717.898438 C 186.238281 718.292969 186.6875 719.050781 186.6875 719.875 C 186.6875 720.699219 186.238281 721.460938 185.515625 721.855469 L 184.386719 722.476562 L 183.730469 723.652344 C 183.335938 724.375 182.582031 724.824219 181.757812 724.824219"/></svg>