<svg xmlns="http://www.w3.org/2000/svg" width="900" viewBox="0 0 900 450" height="450" version="1.0"><defs><clipPath id="a"><path d="M 533.53125 11.304688 L 772.78125 11.304688 L 772.78125 250.554688 L 533.53125 250.554688 Z M 533.53125 11.304688"/></clipPath><clipPath id="b"><path d="M 135.222656 326 L 182.472656 326 L 182.472656 357.207031 L 135.222656 357.207031 Z M 135.222656 326"/></clipPath></defs><g clip-path="url(#a)"><path fill="#FFF" d="M 653.15625 11.304688 C 587.09375 11.304688 533.53125 64.867188 533.53125 130.929688 C 533.53125 184.160156 568.332031 229.230469 616.398438 244.742188 C 612.125 212.8125 614.605469 175.191406 627.664062 145.433594 C 642 112.746094 680.128906 94.222656 680.128906 94.222656 C 680.128906 94.222656 637.625 102.296875 616.429688 137.628906 C 605.183594 156.359375 598.945312 189.464844 598.945312 189.464844 C 598.945312 189.464844 558.871094 135.363281 606.960938 89.988281 C 639.078125 59.664062 706.21875 65.804688 724.988281 76.628906 C 700.128906 116.074219 714.820312 157.246094 687.816406 182.027344 C 658.089844 209.304688 625.203125 204.65625 625.203125 204.65625 C 625.203125 204.65625 624.433594 223.238281 632.886719 248.699219 C 639.476562 249.835938 646.226562 250.554688 653.15625 250.554688 C 719.21875 250.554688 772.78125 196.992188 772.78125 130.929688 C 772.78125 64.867188 719.21875 11.304688 653.15625 11.304688 Z M 653.15625 11.304688"/></g><g fill="#FF914D"><g><g><path d="M 118.21875 -242.953125 L 11.5625 -242.953125 L 11.5625 -237.171875 L 43.390625 -237.171875 L 43.390625 -5.78125 L 11.5625 -5.78125 L 11.5625 0 L 118.21875 0 C 135.09375 0 150.519531 -2.953125 164.5 -8.859375 C 178.476562 -14.765625 190.410156 -23.140625 200.296875 -33.984375 C 210.179688 -44.828125 217.832031 -57.898438 223.25 -73.203125 C 228.675781 -88.515625 231.390625 -105.570312 231.390625 -124.375 C 231.390625 -141.96875 228.617188 -158.054688 223.078125 -172.640625 C 217.535156 -187.222656 209.757812 -199.753906 199.75 -210.234375 C 189.75 -220.722656 177.816406 -228.796875 163.953125 -234.453125 C 150.097656 -240.117188 134.851562 -242.953125 118.21875 -242.953125 Z M 191.625 -133.40625 L 191.625 -115.328125 C 191.625 -93.878906 189.632812 -76.101562 185.65625 -62 C 181.675781 -47.90625 176.3125 -36.695312 169.5625 -28.375 C 162.8125 -20.0625 154.976562 -14.21875 146.0625 -10.84375 C 137.144531 -7.46875 127.625 -5.78125 117.5 -5.78125 L 78.453125 -5.78125 L 78.453125 -237.171875 L 117.5 -237.171875 C 127.382812 -237.171875 136.785156 -235.421875 145.703125 -231.921875 C 154.617188 -228.429688 162.507812 -222.648438 169.375 -214.578125 C 176.25 -206.503906 181.675781 -195.835938 185.65625 -182.578125 C 189.632812 -169.328125 191.625 -152.9375 191.625 -133.40625 Z M 191.625 -133.40625" transform="translate(46.976 256.496)"/></g></g></g><g fill="#FFF"><g><g><path d="M 50.21875 -128.671875 L 65.125 -128.671875 L 65.125 -69.046875 C 60.28125 -76.109375 53.148438 -79.640625 43.734375 -79.640625 C 39.023438 -79.640625 34.445312 -78.460938 30 -76.109375 C 25.5625 -73.753906 21.640625 -70.644531 18.234375 -66.78125 C 14.835938 -62.925781 12.09375 -58.546875 10 -53.640625 C 7.90625 -48.742188 6.859375 -43.742188 6.859375 -38.640625 C 6.859375 -33.148438 8.003906 -27.882812 10.296875 -22.84375 C 12.585938 -17.8125 15.5 -13.398438 19.03125 -9.609375 C 22.5625 -5.816406 26.484375 -2.804688 30.796875 -0.578125 C 35.109375 1.640625 39.226562 2.75 43.15625 2.75 C 48.382812 2.75 52.765625 1.441406 56.296875 -1.171875 C 59.828125 -3.785156 62.769531 -6.796875 65.125 -10.203125 L 65.125 0 L 96.890625 0 L 96.890625 -3.140625 L 81.984375 -3.140625 L 81.984375 -131.8125 L 50.21875 -131.8125 Z M 27.265625 -43.546875 C 27.265625 -55.703125 28.570312 -64.234375 31.1875 -69.140625 C 33.800781 -74.046875 38.25 -76.5 44.53125 -76.5 C 47.269531 -76.5 49.71875 -76.039062 51.875 -75.125 C 54.03125 -74.207031 55.925781 -72.992188 57.5625 -71.484375 C 59.195312 -69.984375 60.632812 -68.382812 61.875 -66.6875 C 63.125 -64.988281 64.207031 -63.351562 65.125 -61.78125 L 65.125 -15.890625 C 62.238281 -11.046875 59.0625 -7.25 55.59375 -4.5 C 52.132812 -1.757812 48.25 -0.390625 43.9375 -0.390625 C 41.1875 -0.390625 38.765625 -0.945312 36.671875 -2.0625 C 34.585938 -3.175781 32.859375 -5.003906 31.484375 -7.546875 C 30.109375 -10.097656 29.0625 -13.53125 28.34375 -17.84375 C 27.625 -22.164062 27.265625 -27.53125 27.265625 -33.9375 Z M 27.265625 -43.546875" transform="translate(6.4 407.8)"/></g></g></g><g fill="#FFF"><g><g><path d="M 72.078125 -34 C 72.078125 -26.75 71.6875 -20.953125 70.90625 -16.609375 C 70.132812 -12.273438 69.003906 -8.941406 67.515625 -6.609375 C 66.023438 -4.273438 64.242188 -2.71875 62.171875 -1.9375 C 60.097656 -1.164062 57.765625 -0.78125 55.171875 -0.78125 C 52.453125 -0.78125 49.863281 -1.328125 47.40625 -2.421875 C 44.945312 -3.523438 42.742188 -4.953125 40.796875 -6.703125 C 38.859375 -8.453125 37.304688 -10.363281 36.140625 -12.4375 C 34.972656 -14.507812 34.390625 -16.515625 34.390625 -18.453125 L 34.390625 -56.140625 C 34.390625 -58.472656 35.035156 -60.804688 36.328125 -63.140625 C 37.617188 -65.472656 39.300781 -67.578125 41.375 -69.453125 C 43.445312 -71.328125 45.742188 -72.847656 48.265625 -74.015625 C 50.796875 -75.179688 53.296875 -75.765625 55.765625 -75.765625 C 57.835938 -75.765625 59.84375 -75.40625 61.78125 -74.6875 C 63.726562 -73.976562 65.476562 -72.488281 67.03125 -70.21875 C 68.582031 -67.957031 69.8125 -64.65625 70.71875 -60.3125 C 71.625 -55.976562 72.078125 -50.1875 72.078125 -42.9375 Z M 34.390625 -66.25 L 34.390625 -76.15625 L 5.046875 -76.15625 L 5.046875 -73.046875 L 17.671875 -73.046875 L 17.671875 48.953125 L 5.046875 48.953125 L 5.046875 52.0625 L 47.015625 52.0625 L 47.015625 48.953125 L 34.390625 48.953125 L 34.390625 -8.359375 C 36.585938 -5.117188 39.4375 -2.460938 42.9375 -0.390625 C 46.4375 1.679688 50.644531 2.71875 55.5625 2.71875 C 60.226562 2.71875 64.757812 1.617188 69.15625 -0.578125 C 73.5625 -2.785156 77.476562 -5.734375 80.90625 -9.421875 C 84.34375 -13.109375 87.097656 -17.445312 89.171875 -22.4375 C 91.242188 -27.425781 92.28125 -32.703125 92.28125 -38.265625 C 92.28125 -43.835938 91.210938 -49.082031 89.078125 -54 C 86.941406 -58.925781 84.125 -63.234375 80.625 -66.921875 C 77.125 -70.617188 73.203125 -73.535156 68.859375 -75.671875 C 64.523438 -77.804688 60.222656 -78.875 55.953125 -78.875 C 50.515625 -78.875 46.078125 -77.515625 42.640625 -74.796875 C 39.210938 -72.078125 36.460938 -69.226562 34.390625 -66.25 Z M 34.390625 -66.25" transform="translate(278.495 357.695)"/></g></g></g><g fill="#FFF"><g><g><path d="M 36.828125 -3.078125 L 36.828125 -129.59375 L 6.75 -129.59375 L 6.75 -126.5 L 20.25 -126.5 L 20.25 -3.078125 L 6.75 -3.078125 L 6.75 0 L 50.328125 0 L 50.328125 -3.078125 Z M 36.828125 -3.078125" transform="translate(223.904 408.664)"/></g></g></g><g fill="#FFF"><g><g><path d="M 36.734375 -122.015625 C 29.921875 -117.546875 26.515625 -112.222656 26.515625 -106.046875 C 26.515625 -103.066406 27.523438 -100.347656 29.546875 -97.890625 C 31.566406 -95.441406 34.390625 -94.21875 38.015625 -94.21875 C 41.628906 -94.21875 44.550781 -95.28125 46.78125 -97.40625 C 49.019531 -99.539062 50.140625 -102.207031 50.140625 -105.40625 C 50.140625 -106.894531 49.875 -108.4375 49.34375 -110.03125 C 48.8125 -111.632812 47.800781 -113.179688 46.3125 -114.671875 C 45.25 -115.734375 44.394531 -116.476562 43.75 -116.90625 C 43.113281 -117.332031 42.796875 -117.863281 42.796875 -118.5 C 42.796875 -119.351562 43.4375 -120.203125 44.71875 -121.046875 C 46 -121.898438 47.59375 -122.644531 49.5 -123.28125 C 51.414062 -123.925781 53.597656 -124.460938 56.046875 -124.890625 C 58.503906 -125.316406 60.90625 -125.53125 63.25 -125.53125 C 69.84375 -125.53125 75.054688 -124.25 78.890625 -121.6875 C 82.722656 -119.132812 84.640625 -114.238281 84.640625 -107 L 84.640625 -69.3125 C 74.847656 -69.3125 65.691406 -68.300781 57.171875 -66.28125 C 48.648438 -64.257812 41.195312 -61.332031 34.8125 -57.5 C 28.425781 -53.664062 23.421875 -48.925781 19.796875 -43.28125 C 16.179688 -37.632812 14.375 -31.300781 14.375 -24.28125 C 14.375 -19.164062 15.273438 -14.742188 17.078125 -11.015625 C 18.890625 -7.296875 21.394531 -4.316406 24.59375 -2.078125 C 27.789062 0.160156 31.460938 1.8125 35.609375 2.875 C 39.765625 3.9375 44.1875 4.46875 48.875 4.46875 C 53.769531 4.46875 58.1875 3.878906 62.125 2.703125 C 66.0625 1.535156 69.570312 0.0507812 72.65625 -1.75 C 75.75 -3.5625 78.359375 -5.476562 80.484375 -7.5 C 82.617188 -9.53125 84.320312 -11.503906 85.59375 -13.421875 C 86.238281 -8.941406 88.265625 -4.835938 91.671875 -1.109375 C 95.078125 2.609375 101.039062 4.46875 109.5625 4.46875 C 115.09375 4.46875 119.722656 3.613281 123.453125 1.90625 C 127.179688 0.207031 130.210938 -1.8125 132.546875 -4.15625 C 134.890625 -6.5 136.539062 -8.894531 137.5 -11.34375 C 138.457031 -13.789062 138.9375 -15.648438 138.9375 -16.921875 C 138.9375 -17.992188 138.617188 -18.53125 137.984375 -18.53125 C 137.347656 -18.53125 136.601562 -17.675781 135.75 -15.96875 C 134.039062 -12.351562 131.910156 -9.425781 129.359375 -7.1875 C 126.804688 -4.945312 124.039062 -3.828125 121.0625 -3.828125 C 116.800781 -3.828125 114.242188 -5.582031 113.390625 -9.09375 C 112.535156 -12.613281 112.109375 -17.460938 112.109375 -23.640625 L 112.109375 -100.9375 C 112.109375 -110.09375 108.703125 -117.171875 101.890625 -122.171875 C 95.078125 -127.171875 84.644531 -129.671875 70.59375 -129.671875 C 63.988281 -129.671875 57.648438 -128.976562 51.578125 -127.59375 C 45.515625 -126.21875 40.566406 -124.359375 36.734375 -122.015625 Z M 84.640625 -66.109375 L 84.640625 -21.71875 C 84.640625 -19.800781 83.734375 -17.773438 81.921875 -15.640625 C 80.117188 -13.515625 77.882812 -11.546875 75.21875 -9.734375 C 72.5625 -7.929688 69.796875 -6.492188 66.921875 -5.421875 C 64.046875 -4.359375 61.648438 -3.828125 59.734375 -3.828125 C 53.128906 -3.828125 48.125 -6.382812 44.71875 -11.5 C 41.3125 -16.613281 39.609375 -23.535156 39.609375 -32.265625 C 39.609375 -39.285156 40.882812 -44.925781 43.4375 -49.1875 C 45.988281 -53.445312 49.34375 -56.75 53.5 -59.09375 C 57.65625 -61.4375 62.445312 -63.085938 67.875 -64.046875 C 73.300781 -65.003906 78.890625 -65.691406 84.640625 -66.109375 Z M 84.640625 -66.109375" transform="translate(360.545 407.598)"/></g></g></g><g fill="#FF914D"><g><g><path d="M 58.90625 -96.953125 L 58.90625 -120.265625 L 11.046875 -120.265625 L 11.046875 -115.359375 L 32.515625 -115.359375 L 32.515625 -4.90625 L 11.046875 -4.90625 L 11.046875 0 L 80.390625 0 L 80.390625 -4.90625 L 58.90625 -4.90625 L 58.90625 -81 C 58.90625 -84.476562 59.828125 -88.210938 61.671875 -92.203125 C 63.515625 -96.191406 65.914062 -99.921875 68.875 -103.390625 C 71.84375 -106.867188 75.21875 -109.734375 79 -111.984375 C 82.789062 -114.234375 86.726562 -115.359375 90.8125 -115.359375 C 96.75 -115.359375 101.097656 -113.515625 103.859375 -109.828125 C 106.617188 -106.148438 108 -100.320312 108 -92.34375 L 108 -4.90625 L 86.515625 -4.90625 L 86.515625 0 L 155.859375 0 L 155.859375 -4.90625 L 134.390625 -4.90625 L 134.390625 -94.5 C 134.390625 -105.132812 131.367188 -112.492188 125.328125 -116.578125 C 119.296875 -120.671875 111.578125 -122.71875 102.171875 -122.71875 C 90.921875 -122.71875 81.765625 -120.160156 74.703125 -115.046875 C 67.648438 -109.941406 62.382812 -103.910156 58.90625 -96.953125 Z M 58.90625 -96.953125" transform="translate(491.839 403.391)"/></g></g></g><g fill="#FF914D"><g><g><path d="M 68.96875 -137.21875 L 12.609375 -137.21875 L 12.609375 -131.625 L 38.859375 -131.625 L 38.859375 -5.59375 L 12.609375 -5.59375 L 12.609375 0 L 95.21875 0 L 95.21875 -5.59375 L 68.96875 -5.59375 Z M 71.765625 -201.984375 C 71.765625 -207.117188 70.015625 -211.4375 66.515625 -214.9375 C 63.015625 -218.4375 58.695312 -220.1875 53.5625 -220.1875 C 48.425781 -220.1875 44.109375 -218.4375 40.609375 -214.9375 C 37.109375 -211.4375 35.359375 -207.117188 35.359375 -201.984375 C 35.359375 -196.847656 37.109375 -192.53125 40.609375 -189.03125 C 44.109375 -185.53125 48.425781 -183.78125 53.5625 -183.78125 C 58.695312 -183.78125 63.015625 -185.53125 66.515625 -189.03125 C 70.015625 -192.53125 71.765625 -196.847656 71.765625 -201.984375 Z M 71.765625 -201.984375" transform="translate(647.988 405.438)"/></g></g></g><g fill="#FF914D"><g><g><path d="M 46.6875 -58.96875 L 46.6875 -73.953125 C 46.6875 -85.085938 47.367188 -94.40625 48.734375 -101.90625 C 50.097656 -109.40625 52.195312 -115.484375 55.03125 -120.140625 C 57.875 -124.796875 61.453125 -128.085938 65.765625 -130.015625 C 70.085938 -131.953125 75.203125 -132.921875 81.109375 -132.921875 C 89.523438 -132.921875 95.265625 -131.84375 98.328125 -129.6875 C 101.398438 -127.53125 102.9375 -125.992188 102.9375 -125.078125 C 102.9375 -124.171875 102.59375 -123.378906 101.90625 -122.703125 C 100.3125 -120.878906 99.117188 -119 98.328125 -117.0625 C 97.535156 -115.132812 97.140625 -112.695312 97.140625 -109.75 C 97.140625 -105.207031 98.613281 -101.738281 101.5625 -99.34375 C 104.519531 -96.957031 107.929688 -95.765625 111.796875 -95.765625 C 116.335938 -95.765625 119.96875 -97.128906 122.6875 -99.859375 C 125.414062 -102.585938 126.78125 -106.109375 126.78125 -110.421875 C 126.78125 -114.742188 125.300781 -118.664062 122.34375 -122.1875 C 119.394531 -125.707031 115.707031 -128.660156 111.28125 -131.046875 C 106.851562 -133.429688 102.023438 -135.25 96.796875 -136.5 C 91.566406 -137.75 86.566406 -138.375 81.796875 -138.375 C 72.929688 -138.375 64.296875 -136.613281 55.890625 -133.09375 C 47.484375 -129.570312 39.984375 -124.6875 33.390625 -118.4375 C 26.804688 -112.1875 21.46875 -104.628906 17.375 -95.765625 C 13.289062 -86.910156 11.25 -77.144531 11.25 -66.46875 C 11.25 -55.5625 13.234375 -45.734375 17.203125 -36.984375 C 21.179688 -28.234375 26.410156 -20.734375 32.890625 -14.484375 C 39.367188 -8.234375 46.753906 -3.460938 55.046875 -0.171875 C 63.335938 3.117188 71.6875 4.765625 80.09375 4.765625 C 88.5 4.765625 95.882812 3.457031 102.25 0.84375 C 108.613281 -1.757812 113.953125 -5.050781 118.265625 -9.03125 C 122.585938 -13.007812 125.992188 -17.210938 128.484375 -21.640625 C 130.984375 -26.066406 132.804688 -30.097656 133.953125 -33.734375 C 134.398438 -35.097656 134.625 -36.007812 134.625 -36.46875 C 134.625 -38.507812 133.71875 -39.53125 131.90625 -39.53125 C 130.539062 -39.53125 129.515625 -38.394531 128.828125 -36.125 C 127.460938 -31.8125 125.414062 -27.550781 122.6875 -23.34375 C 119.96875 -19.144531 116.617188 -15.335938 112.640625 -11.921875 C 108.660156 -8.515625 104 -5.789062 98.65625 -3.75 C 93.320312 -1.707031 87.472656 -0.6875 81.109375 -0.6875 C 74.066406 -0.6875 68.332031 -1.707031 63.90625 -3.75 C 59.476562 -5.789062 55.957031 -9.140625 53.34375 -13.796875 C 50.726562 -18.460938 48.960938 -24.484375 48.046875 -31.859375 C 47.140625 -39.242188 46.6875 -48.28125 46.6875 -58.96875 Z M 46.6875 -58.96875" transform="translate(737.058 400.344)"/></g></g></g><g fill="#FFF"><g><g><path d="M 70.953125 4.375 C 80.328125 4.375 88.816406 2.238281 96.421875 -2.03125 C 104.035156 -6.300781 110.5 -11.664062 115.8125 -18.125 C 121.125 -24.582031 125.238281 -31.664062 128.15625 -39.375 C 131.070312 -47.09375 132.53125 -54.390625 132.53125 -61.265625 C 132.53125 -68.140625 131.070312 -75.429688 128.15625 -83.140625 C 125.238281 -90.859375 121.125 -97.945312 115.8125 -104.40625 C 110.5 -110.863281 104.035156 -116.226562 96.421875 -120.5 C 88.816406 -124.769531 80.328125 -126.90625 70.953125 -126.90625 C 61.578125 -126.90625 53.085938 -124.769531 45.484375 -120.5 C 37.878906 -116.226562 31.363281 -110.863281 25.9375 -104.40625 C 20.519531 -97.945312 16.351562 -90.859375 13.4375 -83.140625 C 10.519531 -75.429688 9.0625 -68.140625 9.0625 -61.265625 C 9.0625 -54.390625 10.519531 -47.09375 13.4375 -39.375 C 16.351562 -31.664062 20.519531 -24.582031 25.9375 -18.125 C 31.363281 -11.664062 37.878906 -6.300781 45.484375 -2.03125 C 53.085938 2.238281 61.578125 4.375 70.953125 4.375 Z M 41.578125 -68.140625 C 41.578125 -76.890625 41.941406 -84.597656 42.671875 -91.265625 C 43.398438 -97.941406 44.804688 -103.570312 46.890625 -108.15625 C 48.972656 -112.738281 51.941406 -116.175781 55.796875 -118.46875 C 59.648438 -120.757812 64.703125 -121.90625 70.953125 -121.90625 C 77.203125 -121.90625 82.253906 -120.757812 86.109375 -118.46875 C 89.960938 -116.175781 92.878906 -112.738281 94.859375 -108.15625 C 96.847656 -103.570312 98.207031 -97.941406 98.9375 -91.265625 C 99.664062 -84.597656 100.03125 -76.890625 100.03125 -68.140625 L 100.03125 -54.703125 C 100.03125 -45.328125 99.664062 -37.25 98.9375 -30.46875 C 98.207031 -23.695312 96.847656 -18.125 94.859375 -13.75 C 92.878906 -9.375 89.960938 -6.09375 86.109375 -3.90625 C 82.253906 -1.71875 77.203125 -0.625 70.953125 -0.625 C 64.703125 -0.625 59.648438 -1.71875 55.796875 -3.90625 C 51.941406 -6.09375 48.972656 -9.375 46.890625 -13.75 C 44.804688 -18.125 43.398438 -23.695312 42.671875 -30.46875 C 41.941406 -37.25 41.578125 -45.328125 41.578125 -54.703125 Z M 41.578125 -68.140625" transform="translate(90.368 401.979)"/></g></g></g><g clip-path="url(#b)"><path fill="#FF914D" d="M 180.789062 347.765625 C 178.785156 349.472656 164.910156 352.660156 160.707031 352.660156 C 160.695312 352.660156 160.679688 352.660156 160.664062 352.660156 C 159.835938 352.652344 158.75 352.542969 157.488281 352.414062 C 154.519531 352.109375 150.820312 351.726562 148.1875 352.570312 C 146.695312 353.042969 145.257812 354.128906 144.210938 354.917969 C 143.832031 355.203125 143.503906 355.449219 143.28125 355.582031 C 142.964844 355.773438 142.710938 355.847656 142.273438 355.691406 C 141.023438 355.246094 136.742188 350.800781 136.644531 349.597656 C 136.617188 349.285156 136.699219 349.101562 136.855469 348.875 C 138.582031 346.34375 145.523438 341.949219 147.820312 340.941406 C 149.996094 339.988281 153.054688 338.894531 156.878906 338.894531 C 158.347656 338.894531 159.9375 339.058594 161.628906 339.453125 C 164.585938 340.144531 169.128906 341.523438 170.328125 342.203125 C 171.082031 342.625 171.445312 343.316406 171.300781 344.050781 C 171.195312 344.589844 170.769531 345.207031 169.898438 345.316406 C 168.910156 345.4375 167.699219 345.226562 166.410156 345.003906 C 164.28125 344.632812 161.867188 344.210938 159.824219 345.273438 C 159.492188 345.449219 159.363281 345.859375 159.535156 346.191406 C 159.710938 346.523438 160.117188 346.652344 160.453125 346.480469 C 162.085938 345.628906 164.167969 345.992188 166.179688 346.34375 C 167.261719 346.53125 168.296875 346.710938 169.261719 346.710938 C 169.527344 346.710938 170.207031 346.652344 170.277344 346.640625 C 171.210938 346.539062 172.269531 346.296875 173.382812 346.042969 C 175.976562 345.449219 178.914062 344.777344 180.429688 345.863281 C 180.816406 346.140625 181.066406 346.585938 181.082031 347.027344 C 181.09375 347.242188 181.046875 347.546875 180.789062 347.765625 Z M 145.253906 332.84375 C 145.253906 332.210938 145.769531 331.695312 146.40625 331.695312 L 174.070312 331.695312 C 174.703125 331.695312 175.21875 332.210938 175.21875 332.84375 L 175.21875 344.257812 C 174.5 344.394531 173.777344 344.558594 173.082031 344.71875 C 172.878906 344.765625 172.675781 344.8125 172.472656 344.855469 C 172.542969 344.683594 172.597656 344.503906 172.632812 344.3125 C 172.894531 342.996094 172.265625 341.734375 170.996094 341.019531 C 169.570312 340.214844 164.679688 338.769531 161.9375 338.128906 C 155.460938 336.617188 150.46875 338.300781 147.273438 339.699219 C 146.769531 339.917969 146.070312 340.285156 145.253906 340.753906 Z M 147.21875 328.074219 C 147.21875 327.695312 147.53125 327.382812 147.914062 327.382812 L 172.5625 327.382812 C 172.941406 327.382812 173.253906 327.695312 173.253906 328.074219 L 173.253906 330.335938 L 147.21875 330.335938 Z M 181.222656 344.757812 C 180.007812 343.890625 178.339844 343.816406 176.578125 344.039062 L 176.578125 332.84375 C 176.578125 331.648438 175.734375 330.644531 174.613281 330.398438 L 174.613281 328.074219 C 174.613281 326.945312 173.691406 326.023438 172.5625 326.023438 L 147.914062 326.023438 C 146.78125 326.023438 145.863281 326.945312 145.863281 328.074219 L 145.863281 330.398438 C 144.738281 330.644531 143.894531 331.648438 143.894531 332.84375 L 143.894531 341.5625 C 140.839844 343.449219 137.03125 346.203125 135.730469 348.109375 C 135.492188 348.457031 135.226562 348.953125 135.289062 349.707031 C 135.441406 351.582031 140.210938 356.398438 141.816406 356.96875 C 142.140625 357.085938 142.433594 357.132812 142.699219 357.132812 C 143.257812 357.132812 143.683594 356.929688 143.984375 356.746094 C 144.265625 356.578125 144.617188 356.3125 145.03125 356.003906 C 146 355.269531 147.332031 354.265625 148.601562 353.863281 C 150.964844 353.109375 154.507812 353.472656 157.351562 353.765625 C 158.648438 353.898438 159.765625 354.011719 160.65625 354.019531 C 160.671875 354.019531 160.6875 354.019531 160.703125 354.019531 C 164.933594 354.019531 179.273438 350.84375 181.667969 348.800781 C 182.199219 348.351562 182.472656 347.703125 182.441406 346.972656 C 182.40625 346.105469 181.949219 345.28125 181.222656 344.757812"/></g><path fill="#FF914D" d="M 162.175781 317.589844 C 163.234375 318.644531 164.945312 318.636719 166.070312 317.574219 C 167.378906 316.339844 168.074219 314.238281 167.933594 311.957031 C 167.929688 311.890625 167.871094 311.835938 167.804688 311.832031 C 165.710938 311.703125 163.714844 312.296875 162.464844 313.417969 C 161.820312 314 161.4375 314.816406 161.414062 315.652344 C 161.394531 316.394531 161.664062 317.082031 162.175781 317.589844 Z M 164.085938 319.738281 C 163.042969 319.738281 162.007812 319.34375 161.214844 318.550781 C 160.4375 317.777344 160.023438 316.734375 160.054688 315.617188 C 160.085938 314.40625 160.632812 313.238281 161.558594 312.410156 C 163.09375 311.027344 165.402344 310.324219 167.886719 310.476562 C 168.640625 310.519531 169.242188 311.121094 169.289062 311.871094 C 169.453125 314.554688 168.601562 317.054688 167.003906 318.5625 C 166.175781 319.347656 165.125 319.738281 164.085938 319.738281"/><path fill="#FF914D" d="M 157.339844 317.828125 L 157.34375 317.828125 Z M 149.738281 309.007812 C 149.476562 309.007812 149.21875 309.015625 148.953125 309.03125 C 148.734375 309.046875 148.558594 309.21875 148.546875 309.4375 C 148.347656 312.640625 149.328125 315.589844 151.171875 317.332031 C 152.8125 318.882812 155.3125 318.890625 156.859375 317.347656 C 157.605469 316.601562 158.003906 315.589844 157.972656 314.511719 C 157.941406 313.292969 157.386719 312.113281 156.449219 311.269531 C 154.847656 309.828125 152.378906 309.007812 149.738281 309.007812 Z M 154.0625 319.859375 C 152.699219 319.859375 151.328125 319.347656 150.238281 318.320312 C 148.105469 316.304688 146.964844 312.953125 147.1875 309.351562 C 147.246094 308.449219 147.96875 307.730469 148.871094 307.675781 C 152.160156 307.472656 155.332031 308.441406 157.359375 310.261719 C 158.574219 311.351562 159.292969 312.886719 159.332031 314.476562 C 159.371094 315.933594 158.835938 317.296875 157.820312 318.308594 C 156.78125 319.34375 155.429688 319.859375 154.0625 319.859375"/><path fill="#FF914D" d="M 177.261719 305.460938 L 176.246094 306.015625 C 175.957031 306.175781 175.71875 306.410156 175.558594 306.703125 L 175.003906 307.714844 C 174.910156 307.890625 174.746094 307.910156 174.675781 307.910156 C 174.613281 307.910156 174.449219 307.890625 174.355469 307.714844 L 173.796875 306.703125 C 173.640625 306.410156 173.402344 306.175781 173.109375 306.015625 L 172.097656 305.460938 C 171.921875 305.367188 171.902344 305.199219 171.902344 305.132812 C 171.902344 305.066406 171.921875 304.902344 172.097656 304.808594 L 173.109375 304.253906 C 173.402344 304.09375 173.640625 303.859375 173.796875 303.566406 L 174.355469 302.550781 C 174.449219 302.378906 174.613281 302.359375 174.675781 302.359375 C 174.746094 302.359375 174.910156 302.378906 175.003906 302.550781 L 175.558594 303.566406 C 175.71875 303.859375 175.957031 304.09375 176.246094 304.253906 L 177.261719 304.808594 C 177.433594 304.902344 177.453125 305.066406 177.453125 305.132812 C 177.453125 305.199219 177.433594 305.367188 177.261719 305.460938 Z M 177.914062 303.617188 L 176.898438 303.0625 C 176.835938 303.027344 176.785156 302.976562 176.75 302.914062 L 176.195312 301.898438 C 175.894531 301.34375 175.3125 301 174.675781 301 C 174.046875 301 173.464844 301.34375 173.160156 301.898438 L 172.605469 302.914062 C 172.570312 302.976562 172.519531 303.027344 172.457031 303.0625 L 171.445312 303.617188 C 170.890625 303.917969 170.542969 304.503906 170.542969 305.132812 C 170.542969 305.765625 170.890625 306.347656 171.445312 306.652344 L 172.457031 307.207031 C 172.519531 307.242188 172.570312 307.292969 172.605469 307.355469 L 173.160156 308.371094 C 173.464844 308.921875 174.046875 309.269531 174.675781 309.269531 C 175.3125 309.269531 175.894531 308.921875 176.195312 308.371094 L 176.75 307.355469 C 176.785156 307.292969 176.835938 307.242188 176.898438 307.207031 L 177.914062 306.652344 C 178.46875 306.347656 178.8125 305.765625 178.8125 305.132812 C 178.8125 304.503906 178.46875 303.917969 177.914062 303.617188"/><path fill="#FF914D" d="M 164.609375 315.894531 L 164.542969 315.878906 C 164.617188 315.832031 164.683594 315.777344 164.757812 315.730469 C 165.070312 315.523438 165.15625 315.101562 164.949219 314.789062 C 164.742188 314.476562 164.320312 314.390625 164.007812 314.597656 C 163.535156 314.910156 163.101562 315.246094 162.699219 315.605469 C 162.671875 315.632812 162.527344 315.761719 162.511719 315.777344 C 161.09375 317.101562 160.128906 318.742188 159.582031 320.757812 C 158.867188 318.792969 157.75 316.992188 156.472656 315.542969 C 156.433594 315.476562 156.089844 315.125 155.976562 315.003906 L 156.21875 313.265625 C 156.269531 312.894531 156.011719 312.550781 155.636719 312.5 C 155.269531 312.449219 154.921875 312.707031 154.871094 313.078125 L 154.757812 313.882812 C 154.449219 313.632812 154.136719 313.394531 153.824219 313.1875 C 153.511719 312.980469 153.089844 313.066406 152.882812 313.378906 C 152.675781 313.691406 152.761719 314.113281 153.074219 314.320312 C 153.527344 314.621094 153.984375 314.984375 154.429688 315.386719 L 153.375 315.507812 C 153 315.550781 152.734375 315.886719 152.773438 316.257812 C 152.8125 316.605469 153.109375 316.859375 153.449219 316.859375 C 153.472656 316.859375 155.621094 316.621094 155.621094 316.621094 C 157.546875 318.871094 159.050781 321.996094 159.050781 325.222656 L 159.050781 326.703125 C 159.050781 327.078125 159.355469 327.382812 159.730469 327.382812 C 160.105469 327.382812 160.410156 327.078125 160.410156 326.703125 L 160.410156 325.222656 C 160.410156 321.5625 161.320312 318.886719 163.242188 316.960938 L 164.28125 317.214844 C 164.335938 317.226562 164.394531 317.234375 164.445312 317.234375 C 164.753906 317.234375 165.03125 317.027344 165.105469 316.71875 C 165.195312 316.351562 164.972656 315.984375 164.609375 315.894531"/><path fill="#FF914D" d="M 140.585938 318.644531 C 140.550781 318.644531 140.539062 318.664062 140.535156 318.671875 L 140.140625 319.386719 C 140.011719 319.628906 139.816406 319.820312 139.578125 319.953125 L 138.863281 320.34375 C 138.855469 320.347656 138.832031 320.363281 138.832031 320.398438 C 138.832031 320.433594 138.855469 320.445312 138.863281 320.449219 L 139.578125 320.839844 C 139.816406 320.96875 140.011719 321.167969 140.144531 321.40625 L 140.53125 322.117188 C 140.546875 322.140625 140.628906 322.140625 140.640625 322.121094 L 141.03125 321.40625 C 141.160156 321.164062 141.359375 320.96875 141.59375 320.839844 L 142.308594 320.449219 C 142.320312 320.441406 142.339844 320.433594 142.339844 320.398438 C 142.339844 320.363281 142.320312 320.347656 142.308594 320.34375 L 141.59375 319.953125 C 141.355469 319.820312 141.160156 319.628906 141.03125 319.390625 L 140.640625 318.671875 C 140.632812 318.664062 140.625 318.644531 140.585938 318.644531 Z M 140.585938 323.507812 C 140.066406 323.507812 139.589844 323.226562 139.34375 322.769531 L 138.949219 322.058594 L 138.210938 321.640625 C 137.757812 321.394531 137.472656 320.914062 137.472656 320.398438 C 137.472656 319.878906 137.757812 319.402344 138.210938 319.152344 L 138.925781 318.761719 L 139.34375 318.023438 C 139.589844 317.566406 140.066406 317.285156 140.585938 317.285156 C 141.105469 317.285156 141.585938 317.566406 141.832031 318.023438 L 142.222656 318.738281 L 142.960938 319.152344 C 143.417969 319.402344 143.699219 319.878906 143.699219 320.398438 C 143.699219 320.914062 143.417969 321.394531 142.960938 321.640625 L 142.246094 322.035156 L 141.832031 322.769531 C 141.585938 323.226562 141.105469 323.507812 140.585938 323.507812"/></svg>